<svg width="25" height="18" viewBox="0 0 25 18" fill="none" xmlns="http://www.w3.org/2000/svg">
<path d="M2.98023 10.649C2.76501 10.75 2.67006 11.0042 2.76597 11.2215L3.74903 13.3318C3.79733 13.4369 3.88544 13.5187 3.9938 13.5591C4.04128 13.5763 4.09163 13.5852 4.14225 13.5852C4.2056 13.5857 4.26813 13.5722 4.32573 13.5461L11.7532 10.0768L11.0804 17.1109C11.0675 17.2494 11.1208 17.3855 11.2244 17.478C11.55 17.7476 11.9558 17.9011 12.3781 17.9149C12.4945 17.9147 12.6102 17.9001 12.7231 17.8714C13.3261 17.714 13.7936 17.1767 14.1125 16.2591L17.0354 7.60405L22.8243 4.90375C24.5283 4.10868 25.4064 2.49652 24.8167 1.23818C24.4821 0.580479 23.8411 0.133074 23.1084 0.0453719C22.2943 -0.0774934 21.4623 0.0505711 20.7229 0.4126L14.0425 3.54512L6.85993 0.735771C5.95541 0.395087 5.23901 0.403843 4.7366 0.766556C4.31506 1.11244 4.07521 1.63236 4.08547 2.17759C4.08985 2.31592 4.15949 2.44385 4.27333 2.52293L9.10982 5.84768L6.34001 7.15842L1.69548 5.97862C1.50516 5.93182 1.30705 6.01761 1.21059 6.18836L0.0529459 8.27229C-0.00711858 8.3827 -0.0165592 8.51377 0.0270867 8.63171C0.070459 8.74979 0.162676 8.84324 0.280206 8.88839L3.71866 10.3085L2.98023 10.649ZM4.98097 1.95922C5.00669 1.77452 5.10014 1.60636 5.24325 1.48733C5.4924 1.30809 5.94679 1.33436 6.554 1.56149L12.9504 4.05628L10.0317 5.41943L4.98097 1.95922ZM1.049 8.26804L1.80918 6.91803L6.27871 8.02765C6.37504 8.052 6.47669 8.04284 6.56727 8.00165L21.0944 1.21642C21.6719 0.931562 22.3224 0.827852 22.9599 0.919248C23.4071 0.960431 23.8054 1.21848 24.026 1.60951C24.3927 2.39609 23.672 3.54512 22.4529 4.11306L17.4198 6.47254L17.7257 5.56788C17.803 5.33515 17.6767 5.08367 17.444 5.0065C17.211 4.92934 16.9597 5.05562 16.8825 5.28835L13.2867 15.988C13.0726 16.5955 12.806 16.9582 12.509 17.0366C12.325 17.0721 12.1345 17.0359 11.9759 16.9363L12.8498 7.76112C12.8727 7.51991 12.6958 7.30578 12.4543 7.28293C12.2131 7.25981 11.9989 7.43699 11.9759 7.67821L11.8406 9.08062L4.34311 12.5759L3.72741 11.2651L4.95921 10.6885C5.11779 10.6186 5.21999 10.4618 5.21999 10.2888C5.21999 10.1155 5.11779 9.95874 4.95921 9.88896L1.049 8.26804Z" fill="black"/>
</svg>
