<svg width="25" height="25" viewBox="0 0 25 25" fill="none" xmlns="http://www.w3.org/2000/svg">
<path d="M24.4318 13.6364H19.8864V3.30455C20.546 3.06932 21.0227 2.44432 21.0227 1.70455C21.0227 0.764773 20.258 0 19.3182 0H5.68182C4.74205 0 3.97727 0.764773 3.97727 1.70455C3.97727 2.44432 4.45398 3.06932 5.11364 3.30455V13.6364H0.568182C0.253977 13.6364 0 13.8903 0 14.2045V24.4318C0 24.746 0.253977 25 0.568182 25H24.4318C24.746 25 25 24.746 25 24.4318V14.2045C25 13.8903 24.746 13.6364 24.4318 13.6364ZM13.0682 3.40909H18.75V9.09091H13.0682V3.40909ZM11.9318 9.09091H6.25V3.40909H11.9318V9.09091ZM18.75 10.2273V13.6364H13.0682V10.2273H18.75ZM5.68182 1.13636H19.3182C20.0602 1.1483 20.0687 2.25909 19.3182 2.27273H5.68182C4.93977 2.2608 4.93125 1.15 5.68182 1.13636ZM6.25 10.2273H11.9318V13.6364H6.25V10.2273ZM23.8636 23.8636H1.13636V14.7727H23.8636V23.8636Z" fill="black"/>
<path d="M10.7954 15.9091C10.4812 15.9091 10.2273 16.1631 10.2273 16.4773V22.1591C10.2273 22.4733 10.4812 22.7273 10.7954 22.7273C11.1097 22.7273 11.3636 22.4733 11.3636 22.1591V16.4773C11.3636 16.1631 11.1097 15.9091 10.7954 15.9091Z" fill="black"/>
<path d="M7.38636 15.9091C7.07216 15.9091 6.81818 16.1631 6.81818 16.4773V22.1591C6.81818 22.4733 7.07216 22.7273 7.38636 22.7273C7.70057 22.7273 7.95454 22.4733 7.95454 22.1591V16.4773C7.95454 16.1631 7.70057 15.9091 7.38636 15.9091Z" fill="black"/>
<path d="M3.97727 15.9091C3.66307 15.9091 3.40909 16.1631 3.40909 16.4773V22.1591C3.40909 22.4733 3.66307 22.7273 3.97727 22.7273C4.29148 22.7273 4.54546 22.4733 4.54546 22.1591V16.4773C4.54546 16.1631 4.29148 15.9091 3.97727 15.9091Z" fill="black"/>
<path d="M14.2045 15.9091C13.8903 15.9091 13.6364 16.1631 13.6364 16.4773V22.1591C13.6364 22.4733 13.8903 22.7273 14.2045 22.7273C14.5187 22.7273 14.7727 22.4733 14.7727 22.1591V16.4773C14.7727 16.1631 14.5187 15.9091 14.2045 15.9091Z" fill="black"/>
<path d="M17.6136 15.9091C17.2994 15.9091 17.0455 16.1631 17.0455 16.4773V22.1591C17.0455 22.4733 17.2994 22.7273 17.6136 22.7273C17.9278 22.7273 18.1818 22.4733 18.1818 22.1591V16.4773C18.1818 16.1631 17.9278 15.9091 17.6136 15.9091Z" fill="black"/>
<path d="M21.0227 22.7273C21.3369 22.7273 21.5909 22.4733 21.5909 22.1591V16.4773C21.5909 16.1631 21.3369 15.9091 21.0227 15.9091C20.7085 15.9091 20.4545 16.1631 20.4545 16.4773V22.1591C20.4545 22.4733 20.7085 22.7273 21.0227 22.7273Z" fill="black"/>
</svg>
