<svg width="25" height="26" viewBox="0 0 25 26" fill="none" xmlns="http://www.w3.org/2000/svg">
<path d="M14.1668 15.8348C14.1668 18.1359 16.0323 20.0014 18.3335 20.0014C20.6345 20.0014 22.5 18.1359 22.5 15.8348C22.5 13.5338 20.6345 11.6683 18.3335 11.6683C16.0333 11.6708 14.1694 13.5348 14.1668 15.8348ZM18.3335 12.5015C20.1744 12.5015 21.6667 13.9938 21.6667 15.8348C21.6667 17.6757 20.1744 19.168 18.3335 19.168C16.4926 19.168 15.0002 17.6757 15.0002 15.8348C15.0023 13.9948 16.4934 12.5035 18.3335 12.5015Z" fill="black"/>
<path d="M15.9526 24.1681H20.7147V25.0013H15.9526V24.1681Z" fill="black"/>
<path d="M14.1668 22.5013H22.5001V23.3347H14.1668V22.5013Z" fill="black"/>
<path d="M5.0003 22.5013H5.8337V23.3347H5.0003V22.5013Z" fill="black"/>
<path d="M2.50044 23.3347H3.33367V24.1681H2.50044V23.3347Z" fill="black"/>
<path d="M5.04199 20.1567C7.2176 16.3676 8.58267 12.1678 9.05064 7.82368L12.9256 11.6757C13.0031 11.7528 13.1079 11.7964 13.2173 11.7969C13.2398 11.797 13.2625 11.7952 13.2847 11.7915C13.4168 11.77 13.5304 11.6863 13.5901 11.5666C14.3756 9.99879 14.068 8.10406 12.8268 6.86539L12.4861 6.5245H15.4168C15.6469 6.52467 15.8336 6.33826 15.8336 6.10814C15.8338 6.06309 15.8264 6.01838 15.8123 5.97585C15.2589 4.31175 13.7017 3.18957 11.948 3.19125H11.4064L13.4872 1.09834C13.6496 0.935292 13.6489 0.671556 13.4859 0.50918C13.4543 0.477746 13.418 0.451524 13.3782 0.431689C11.8097 -0.354643 9.91395 -0.0472033 8.67445 1.19466L8.27657 1.59253C8.14681 1.72314 8.02629 1.86232 7.91534 2.00923C7.80575 1.86232 7.68607 1.72314 7.55731 1.59253L7.15944 1.19466C5.92094 -0.0463629 4.02621 -0.353802 2.45876 0.431689C2.25285 0.534561 2.1693 0.78485 2.27218 0.990594C2.29201 1.03043 2.31823 1.06674 2.34967 1.09834L4.43283 3.19125H3.88586C2.13216 3.18957 0.574789 4.31175 0.0215994 5.97585C-0.0513524 6.19403 0.0664798 6.43003 0.284831 6.50299C0.327358 6.51727 0.37207 6.5245 0.417119 6.5245H3.34494L3.00422 6.86539C1.76303 8.10406 1.45542 9.99879 2.24074 11.5666C2.30058 11.6863 2.41421 11.77 2.54617 11.7915C2.56852 11.7952 2.59105 11.797 2.61374 11.7969C2.72384 11.7969 2.8294 11.7533 2.90739 11.6757L6.51581 8.08859C6.06903 12.0813 4.56528 15.8825 2.15956 19.1001C1.59947 18.953 1.03166 18.8372 0.458805 18.7535L0.198432 18.7273L0.115058 19.5568L0.35795 19.5805C0.774649 19.6402 1.18866 19.7244 1.60048 19.8197C1.51711 19.9243 1.43374 20.0305 1.34751 20.1335L1.98659 20.6681C5.18856 16.8611 7.09741 12.1349 7.43746 7.17199L7.91703 6.69545L8.27607 7.05248C7.83802 12.36 6.01625 17.46 2.99245 21.8439L3.6749 22.3214C4.00251 21.8538 4.31499 21.3685 4.61789 20.874C6.56692 21.8062 8.28784 23.1545 9.65946 24.8238L10.3039 24.2958C9.49288 23.3098 8.56367 22.4271 7.53697 21.668H25V20.8346H6.30251C5.89404 20.588 5.47247 20.3647 5.04199 20.1567ZM13.0643 10.6377L8.66201 6.26077C9.78805 5.92458 11.0077 6.22967 11.8428 7.05651L12.2407 7.45455C13.0742 8.28661 13.3896 9.50577 13.0643 10.6377ZM14.781 5.69127H11.3311C10.5277 5.30886 9.62114 5.20061 8.75026 5.38333C9.35656 4.53077 10.3379 4.02448 11.3841 4.02465H11.9465C13.1243 4.0228 14.21 4.66121 14.781 5.69127ZM8.86439 2.18169L9.26243 1.78382C10.0952 0.950084 11.3148 0.634576 12.4473 0.960001L9.97732 3.44456C9.1757 3.73956 8.48753 4.27981 8.01032 4.98831C7.81651 3.96901 8.13622 2.91944 8.86574 2.18169H8.86439ZM6.5691 1.78382L6.96697 2.18169C7.15255 2.37113 7.31358 2.58326 7.4462 2.81287C7.25743 3.25176 7.14969 3.7209 7.12784 4.19795C6.75383 3.87118 6.32301 3.61602 5.85706 3.44456L3.38662 0.960001C4.51872 0.634744 5.73806 0.950252 6.57028 1.78382H6.5691ZM3.88451 4.02465H4.44711C5.49399 4.02364 6.47665 4.52976 7.08363 5.38283C6.21325 5.20078 5.30707 5.30903 4.5041 5.69127H1.05284C1.62368 4.66171 2.70854 4.02347 3.88586 4.02465H3.88451ZM2.76956 10.6377C2.4443 9.50577 2.75981 8.28661 3.59338 7.45455L3.99125 7.05651C4.59066 6.45861 5.40355 6.12394 6.2504 6.12663C6.56288 6.1268 6.87368 6.17134 7.17373 6.25909L2.76956 10.6377Z" fill="black"/>
</svg>
