<svg width="16" height="26" viewBox="0 0 16 26" fill="none" xmlns="http://www.w3.org/2000/svg">
<path d="M15.5564 1.71171C15.5564 1.40449 15.3081 1.15616 15.0008 1.15616H11.5642C11.332 0.521155 10.7308 0.0450439 10.0008 0.0450439H8.88973C8.15917 0.0450439 7.59806 0.495044 7.3264 1.15616C4.3314 0.861711 1.65084 3.16671 1.66751 6.15616V11.7117H1.11195C0.826397 11.7117 0.587509 11.9284 0.559175 12.2117L0.00361965 17.7673C-0.0347137 18.0839 0.236953 18.3862 0.556397 18.3784H3.88973C4.20918 18.3845 4.4814 18.085 4.44251 17.7673L3.88695 12.2117C3.85862 11.9284 3.61973 11.7117 3.33418 11.7117H2.77862V6.15616C2.76362 3.77171 4.87084 2.0556 7.31918 2.24782C7.5564 2.90338 8.15917 3.37838 8.88973 3.37838V3.93393H7.95529C7.28806 3.93393 6.68695 4.3306 6.42362 4.94393C5.47918 7.14727 5.00084 9.47949 5.00084 11.8767V23.3784C5.00084 24.2973 5.74862 25.045 6.66751 25.045H12.2231C13.142 25.045 13.8897 24.2973 13.8897 23.3784V11.8767C13.8875 9.49893 13.4131 7.14616 12.4664 4.94393C12.2036 4.3306 11.6025 3.93393 10.9353 3.93393H10.0008V3.37838C10.5436 3.37838 11.0214 3.11393 11.3258 2.71115C12.1575 3.61338 13.1264 4.53949 14.4453 4.48949C15.1708 4.4806 15.1786 3.38949 14.4453 3.37838C13.6281 3.41504 12.9658 2.83782 12.4531 2.26727H15.0008C15.3081 2.26727 15.5564 2.01893 15.5564 1.71171ZM3.27584 17.2673H1.17029L1.61473 12.8228H2.83084L3.27584 17.2673ZM12.7786 20.6006H10.0008V11.7117H12.7747C12.7753 11.7667 12.7786 20.6006 12.7786 20.6006ZM11.4458 5.38115C12.1614 7.05227 12.587 8.80338 12.7247 10.6006H9.44529C9.13806 10.6006 8.88973 10.8489 8.88973 11.1562V21.1562C8.88973 21.4634 9.13806 21.7117 9.44529 21.7117H12.7786V23.3784C12.7786 23.685 12.5297 23.9339 12.2231 23.9339H6.66751C6.36084 23.9339 6.11195 23.685 6.11195 23.3784V11.8767C6.11195 9.63116 6.56084 7.4456 7.44473 5.38227C7.53306 5.17727 7.73306 5.04504 7.95529 5.04504H10.9347C11.1575 5.04504 11.3575 5.17727 11.4458 5.38115ZM10.0008 2.26727H8.88973C8.58306 2.26727 8.33418 2.01838 8.33418 1.71171C8.33418 1.40504 8.58306 1.15616 8.88973 1.15616H10.0008C10.727 1.15949 10.7275 2.26393 10.0008 2.26727Z" fill="black"/>
</svg>
