<svg width="25" height="23" viewBox="0 0 25 23" fill="none" xmlns="http://www.w3.org/2000/svg">
<path d="M12.4912 22.336C12.2843 22.336 12.0951 22.2008 12.0288 22.0047C11.9665 21.8205 12.0218 21.6087 12.1691 21.4808C12.3299 21.3411 12.5675 21.3216 12.7488 21.4334C12.9172 21.5373 13.0068 21.7411 12.9712 21.9355C12.9292 22.1646 12.7242 22.336 12.4912 22.336Z" fill="black"/>
<path d="M24.5117 18.8063H22.5754V6.08296H23.5328C23.8025 6.08296 24.0211 5.86431 24.0211 5.59468V3.0415C24.0211 2.77188 23.8025 2.55322 23.5328 2.55322H22.3232V0.488281C22.3232 0.218652 22.1045 0 21.8349 0H3.16514C2.89546 0 2.67686 0.218652 2.67686 0.488281V2.55322H1.46724C1.19756 2.55322 0.978955 2.77188 0.978955 3.0415V5.59468C0.978955 5.72417 1.03042 5.84834 1.12197 5.93994C1.21353 6.03149 1.33774 6.08296 1.46724 6.08296H2.42466V18.8063H0.488281C0.218604 18.8063 0 19.025 0 19.2946V21.8478C0 21.9773 0.0514648 22.1015 0.143018 22.1931C0.23457 22.2846 0.358789 22.3361 0.488281 22.3361H10.2926C10.5623 22.3361 10.7809 22.1174 10.7809 21.8478C10.7809 21.5781 10.5623 21.3595 10.2926 21.3595H0.976562V19.7829H24.0234V21.3595H14.7073C14.4376 21.3595 14.219 21.5781 14.219 21.8478C14.219 22.1174 14.4376 22.3361 14.7073 22.3361H24.5117C24.7813 22.3361 25 22.1174 25 21.8478V19.2946C25 19.025 24.7813 18.8063 24.5117 18.8063ZM3.65342 0.976562H21.3466V2.55322H3.65337L3.65342 0.976562ZM1.95552 3.52979H23.0445V5.1064H1.95547L1.95552 3.52979ZM21.5988 6.08296V14.3842H18.3202V13.1128C18.3202 9.90352 15.7092 7.29263 12.5 7.29263C9.29072 7.29263 6.67979 9.90356 6.67979 13.1128V14.3842H3.40117V6.08296H21.5988ZM3.40117 15.3607H6.67979V18.8063H3.40117V15.3607ZM10.3232 16.5804C10.3232 15.8386 10.6447 14.8136 11.2053 13.7681C11.5171 13.1868 11.8188 12.7538 12.0504 12.4738C12.2299 13.7163 12.9988 14.3812 13.6318 14.9286C14.2157 15.4334 14.6768 15.8321 14.6768 16.5804C14.6768 17.7808 13.7003 18.7574 12.5 18.7574C11.2997 18.7574 10.3232 17.7808 10.3232 16.5804ZM14.7316 18.8063C15.3009 18.2355 15.6534 17.4484 15.6534 16.5804C15.6534 15.3855 14.9187 14.7504 14.2706 14.1899C13.5825 13.595 12.9883 13.0812 12.9883 11.9161C12.9883 11.3037 12.5823 11.1402 12.3425 11.1402C12.038 11.1402 11.7279 11.3455 11.3371 11.8059C11.0478 12.1466 10.7322 12.6125 10.4484 13.1176C10.1171 13.7074 9.34663 15.2254 9.34663 16.5804C9.34663 17.4483 9.69907 18.2355 10.2684 18.8063H7.65635V13.1128C7.65635 10.442 9.8292 8.26919 12.5 8.26919C15.1708 8.26919 17.3436 10.442 17.3436 13.1128V18.8063H14.7316ZM18.3202 18.8063V15.3608H21.5988V18.8063H18.3202Z" fill="black"/>
</svg>
