<svg width="25" height="25" viewBox="0 0 25 25" fill="none" xmlns="http://www.w3.org/2000/svg">
<path d="M2.82257 16.129C2.58332 16.129 2.34944 16.2 2.15051 16.3329C1.95158 16.4658 1.79653 16.6547 1.70497 16.8758C1.61341 17.0968 1.58946 17.3401 1.63613 17.5747C1.68281 17.8094 1.79802 18.0249 1.9672 18.1941C2.13637 18.3633 2.35192 18.4785 2.58657 18.5251C2.82123 18.5718 3.06445 18.5479 3.28549 18.4563C3.50653 18.3647 3.69546 18.2097 3.82838 18.0108C3.9613 17.8118 4.03225 17.578 4.03225 17.3387C4.03188 17.018 3.90432 16.7105 3.67754 16.4837C3.45076 16.257 3.14328 16.1294 2.82257 16.129ZM2.82257 17.7419C2.74282 17.7419 2.66486 17.7183 2.59855 17.674C2.53224 17.6297 2.48055 17.5667 2.45004 17.493C2.41952 17.4193 2.41153 17.3383 2.42709 17.26C2.44265 17.1818 2.48105 17.11 2.53744 17.0536C2.59384 16.9972 2.66568 16.9588 2.7439 16.9432C2.82212 16.9277 2.9032 16.9357 2.97688 16.9662C3.05056 16.9967 3.11353 17.0484 3.15784 17.1147C3.20214 17.181 3.22579 17.259 3.22579 17.3387C3.22567 17.4456 3.18315 17.5481 3.10756 17.6237C3.03197 17.6993 2.92947 17.7418 2.82257 17.7419Z" fill="black"/>
<path d="M18.1451 16.129C17.9059 16.129 17.672 16.2 17.4731 16.3329C17.2742 16.4658 17.1191 16.6547 17.0276 16.8758C16.936 17.0968 16.912 17.3401 16.9587 17.5747C17.0054 17.8094 17.1206 18.0249 17.2898 18.1941C17.459 18.3633 17.6745 18.4785 17.9092 18.5251C18.1438 18.5718 18.387 18.5479 18.6081 18.4563C18.8291 18.3647 19.018 18.2097 19.151 18.0108C19.2839 17.8118 19.3548 17.578 19.3548 17.3387C19.3545 17.018 19.2269 16.7105 19.0001 16.4837C18.7733 16.257 18.4659 16.1294 18.1451 16.129ZM18.1451 17.7419C18.0654 17.7419 17.9874 17.7183 17.9211 17.674C17.8548 17.6297 17.8031 17.5667 17.7726 17.493C17.7421 17.4193 17.7341 17.3383 17.7497 17.26C17.7652 17.1818 17.8036 17.11 17.86 17.0536C17.9164 16.9972 17.9883 16.9588 18.0665 16.9432C18.1447 16.9277 18.2258 16.9357 18.2995 16.9662C18.3731 16.9967 18.4361 17.0484 18.4804 17.1147C18.5247 17.181 18.5484 17.259 18.5484 17.3387C18.5483 17.4456 18.5057 17.5481 18.4301 17.6237C18.3545 17.6993 18.2521 17.7418 18.1451 17.7419Z" fill="black"/>
<path d="M20.9677 17.3387C20.9677 16.964 20.8931 16.593 20.7482 16.2475C20.6034 15.9019 20.3912 15.5886 20.1239 15.3259C19.8567 15.0632 19.5399 14.8564 19.1919 14.7174C18.8439 14.5784 18.4717 14.5101 18.0971 14.5165C16.5672 14.5421 15.3226 15.826 15.3226 17.3785V18.7331C14.218 18.4325 12.607 18.1452 10.4839 18.1452C8.36072 18.1452 6.74974 18.4325 5.64515 18.7331V17.3387C5.64515 16.9588 5.56846 16.5828 5.41969 16.2333C5.27091 15.8837 5.0531 15.5678 4.77931 15.3045C4.50552 15.0411 4.18139 14.8357 3.82633 14.7006C3.47127 14.5655 3.0926 14.5035 2.71299 14.5182C2.00361 14.5481 1.33132 14.8433 0.829259 15.3454C0.327204 15.8475 0.0319972 16.5197 0.00210379 17.2291C-0.0248086 17.9263 0.207261 18.6087 0.653588 19.1448C1.09991 19.681 1.72891 20.033 2.41934 20.133V21.7742C2.41982 22.2018 2.58991 22.6118 2.89228 22.9142C3.19465 23.2165 3.60462 23.3866 4.03225 23.3871V24.5968C4.03225 24.7037 4.07473 24.8063 4.15035 24.8819C4.22597 24.9575 4.32853 25 4.43547 25H5.64515C5.72003 25 5.79343 24.9791 5.85712 24.9398C5.92082 24.9004 5.97229 24.8441 6.00578 24.7771L6.70079 23.3871H14.2669L14.9619 24.7771C14.9954 24.8441 15.0469 24.9004 15.1106 24.9398C15.1743 24.9791 15.2477 25 15.3226 25H16.5322C16.6392 25 16.7417 24.9575 16.8174 24.8819C16.893 24.8063 16.9355 24.7037 16.9355 24.5968V23.3871C17.3631 23.3866 17.7731 23.2165 18.0754 22.9142C18.3778 22.6118 18.5479 22.2018 18.5484 21.7742V20.1326C19.2198 20.0347 19.8337 19.6987 20.2778 19.1857C20.722 18.6728 20.9669 18.0172 20.9677 17.3387ZM5.39595 24.1935H4.8387V23.3871H5.79918L5.39595 24.1935ZM16.129 24.1935H15.5718L15.1685 23.3871H16.129V24.1935ZM18.1451 19.3548C18.0382 19.3548 17.9356 19.3973 17.86 19.4729C17.7844 19.5486 17.7419 19.6511 17.7419 19.7581V21.7742C17.7417 21.988 17.6566 22.193 17.5054 22.3442C17.3543 22.4953 17.1493 22.5804 16.9355 22.5806H4.03225C3.81844 22.5804 3.61346 22.4953 3.46228 22.3442C3.31109 22.193 3.22605 21.988 3.22579 21.7742V19.7581C3.22579 19.6511 3.18331 19.5486 3.10769 19.4729C3.03207 19.3973 2.92951 19.3548 2.82257 19.3548C2.55116 19.3548 2.28254 19.3 2.03282 19.1937C1.7831 19.0874 1.55741 18.9318 1.36929 18.7362C1.18117 18.5405 1.03448 18.3089 0.938023 18.0552C0.841566 17.8015 0.797325 17.531 0.80795 17.2598C0.829317 16.7533 1.04009 16.2733 1.39854 15.9149C1.75698 15.5564 2.23697 15.3457 2.74343 15.3243C3.01464 15.3136 3.2852 15.3579 3.5389 15.4543C3.7926 15.5507 4.02422 15.6974 4.21987 15.8855C4.41552 16.0736 4.57118 16.2993 4.67752 16.549C4.78385 16.7987 4.83868 17.0673 4.8387 17.3387V18.9819C4.20306 19.2036 3.86904 19.3872 3.83456 19.4066L4.22907 20.11C4.24989 20.0984 6.36052 18.9516 10.4839 18.9516C14.6072 18.9516 16.7178 20.0984 16.7378 20.1095L17.1332 19.4066C17.0987 19.3872 16.7647 19.2034 16.129 18.9819V17.3785C16.129 16.2633 17.0179 15.3411 18.1105 15.3229C18.3767 15.3183 18.6412 15.3664 18.8887 15.4646C19.1362 15.5627 19.3618 15.7089 19.5525 15.8947C19.7432 16.0806 19.8952 16.3023 19.9997 16.5472C20.1042 16.792 20.1592 17.0552 20.1615 17.3214C20.1638 17.5876 20.1133 17.8517 20.013 18.0983C19.9127 18.3449 19.7645 18.5692 19.5771 18.7583C19.3896 18.9474 19.1665 19.0974 18.9208 19.1998C18.675 19.3022 18.4114 19.3549 18.1451 19.3548Z" fill="black"/>
<path d="M3.22579 11.6935C3.22605 11.4797 3.31109 11.2748 3.46228 11.1236C3.61346 10.9724 3.81844 10.8874 4.03225 10.8871H16.9355C17.1493 10.8874 17.3543 10.9724 17.5054 11.1236C17.6566 11.2748 17.7417 11.4797 17.7419 11.6935V13.7097H18.5484V11.6935C18.5479 11.2659 18.3778 10.856 18.0754 10.5536C17.7731 10.2512 17.3631 10.0811 16.9355 10.0806H4.03225C3.60462 10.0811 3.19465 10.2512 2.89228 10.5536C2.58991 10.856 2.41982 11.2659 2.41934 11.6935V13.7097H3.22579V11.6935Z" fill="black"/>
<path d="M8.0645 12.5H8.87095V13.3065H8.0645V12.5Z" fill="black"/>
<path d="M10.0806 14.5161H10.8871V15.3226H10.0806V14.5161Z" fill="black"/>
<path d="M6.04837 14.5161H6.85483V15.3226H6.04837V14.5161Z" fill="black"/>
<path d="M8.0645 16.5323H8.87095V17.3387H8.0645V16.5323Z" fill="black"/>
<path d="M12.0968 12.5H12.9032V13.3065H12.0968V12.5Z" fill="black"/>
<path d="M14.1129 14.5161H14.9193V15.3226H14.1129V14.5161Z" fill="black"/>
<path d="M12.0968 16.5323H12.9032V17.3387H12.0968V16.5323Z" fill="black"/>
<path d="M22.5806 0H11.2903C10.8627 0.000480264 10.4527 0.170565 10.1503 0.472939C9.84797 0.775313 9.67789 1.18528 9.67741 1.6129V2.01613H10.4839V1.6129C10.4841 1.3991 10.5692 1.19412 10.7203 1.04294C10.8715 0.891752 11.0765 0.806705 11.2903 0.806452H16.5322V9.27419H17.3387V0.806452H22.5806C22.7944 0.806705 22.9994 0.891752 23.1506 1.04294C23.3018 1.19412 23.3868 1.3991 23.3871 1.6129V21.7742C23.3868 21.988 23.3018 22.193 23.1506 22.3442C22.9994 22.4953 22.7944 22.5804 22.5806 22.5806H18.9516V23.3871H19.9121L20.6071 24.7771C20.6406 24.8441 20.6921 24.9004 20.7558 24.9398C20.8194 24.9791 20.8928 25 20.9677 25H22.1774C22.2843 25 22.3869 24.9575 22.4625 24.8819C22.5381 24.8063 22.5806 24.7037 22.5806 24.5968V23.3871C23.0083 23.3866 23.4182 23.2165 23.7206 22.9142C24.023 22.6118 24.1931 22.2018 24.1935 21.7742V1.6129C24.1931 1.18528 24.023 0.775313 23.7206 0.472939C23.4182 0.170565 23.0083 0.000480264 22.5806 0ZM21.7742 24.1935H21.2169L20.8137 23.3871H21.7742V24.1935Z" fill="black"/>
<path d="M2.82257 8.46774H6.4516V9.27419H7.25805V8.46774H10.8871C10.9429 8.46774 10.998 8.45617 11.0491 8.43375C11.1002 8.41134 11.146 8.37857 11.1838 8.33753C11.2216 8.29648 11.2504 8.24804 11.2685 8.19528C11.2866 8.14252 11.2935 8.08658 11.2889 8.031L10.8857 3.19229C10.8773 3.0915 10.8313 2.99755 10.7569 2.92907C10.6824 2.86059 10.585 2.82258 10.4839 2.82258H7.25805V2.01613H6.4516V2.82258H3.22579C3.12466 2.82258 3.02721 2.86059 2.95279 2.92907C2.87836 2.99755 2.83239 3.0915 2.82398 3.19229L2.42075 8.031C2.41612 8.08658 2.42306 8.14252 2.44115 8.19528C2.45924 8.24804 2.48808 8.29648 2.52584 8.33753C2.5636 8.37857 2.60947 8.41134 2.66055 8.43375C2.71162 8.45617 2.76679 8.46774 2.82257 8.46774ZM3.59681 3.62903H10.1128L10.4489 7.66129H3.26077L3.59681 3.62903Z" fill="black"/>
</svg>
