<svg width="26" height="25" viewBox="0 0 26 25" fill="none" xmlns="http://www.w3.org/2000/svg">
<path d="M0.133048 8.50004C0.0771857 8.42027 0.0377202 8.3302 0.0169404 8.23506C-0.00383944 8.13992 -0.00551998 8.04159 0.0119971 7.9458C0.0295141 7.85 0.0658798 7.75864 0.118984 7.67701C0.172088 7.59537 0.240874 7.5251 0.32135 7.47026L10.0792 0.741407C10.7965 0.258156 11.6417 0 12.5065 0C13.3714 0 14.2166 0.258156 14.9339 0.741407L24.6917 7.47026C24.8525 7.58107 24.9626 7.75119 24.998 7.94321C25.0333 8.13523 24.9909 8.33341 24.88 8.49415C24.7692 8.6549 24.5991 8.76505 24.4071 8.80036C24.2151 8.83567 24.0169 8.79326 23.8562 8.68246L14.1012 1.95801C13.6305 1.64078 13.0757 1.47131 12.508 1.47131C11.9403 1.47131 11.3856 1.64078 10.9148 1.95801L1.15694 8.68834C1.07737 8.74328 0.987753 8.782 0.893208 8.80227C0.798664 8.82254 0.70105 8.82397 0.605952 8.80648C0.510853 8.78899 0.420135 8.75293 0.33899 8.70034C0.257844 8.64776 0.187862 8.57969 0.133048 8.50004ZM25.0124 24.2644C25.0124 24.4595 24.935 24.6466 24.797 24.7846C24.6591 24.9225 24.472 25 24.2769 25H0.739145C0.544064 25 0.356973 24.9225 0.21903 24.7846C0.0810864 24.6466 0.00359053 24.4595 0.00359053 24.2644C0.00359053 24.0694 0.0810864 23.8823 0.21903 23.7443C0.356973 23.6064 0.544064 23.5289 0.739145 23.5289H3.68136V21.9224C3.2526 21.7709 2.88115 21.4905 2.61782 21.1197C2.35448 20.749 2.21214 20.3059 2.21025 19.8511V17.5179C2.20951 17.2282 2.2662 16.9413 2.37705 16.6736C2.48791 16.4059 2.65072 16.1629 2.85607 15.9586L3.37684 15.4378L2.42504 14.4875C2.35665 14.4191 2.3024 14.3379 2.26539 14.2485C2.22837 14.1592 2.20932 14.0634 2.20932 13.9667C2.20932 13.87 2.22837 13.7742 2.26539 13.6848C2.3024 13.5955 2.35665 13.5143 2.42504 13.4459C2.56315 13.3078 2.75048 13.2302 2.94581 13.2302C3.04253 13.2302 3.1383 13.2492 3.22765 13.2863C3.317 13.3233 3.39819 13.3775 3.46658 13.4459L4.21538 14.1962L6.29405 10.0373C6.47645 9.67002 6.75805 9.3611 7.10696 9.14556C7.45587 8.93003 7.85817 8.81649 8.26828 8.8178H16.7478C17.1579 8.81649 17.5602 8.93003 17.9091 9.14556C18.258 9.3611 18.5396 9.67002 18.722 10.0373L20.8007 14.1962L21.5495 13.4459C21.6876 13.3078 21.8749 13.2302 22.0702 13.2302C22.2656 13.2302 22.4529 13.3078 22.591 13.4459C22.7291 13.584 22.8067 13.7714 22.8067 13.9667C22.8067 14.162 22.7291 14.3493 22.591 14.4875L21.6392 15.4378L22.16 15.9586C22.3653 16.1629 22.5281 16.4059 22.639 16.6736C22.7498 16.9413 22.8065 17.2282 22.8058 17.5179V19.8511C22.8039 20.3059 22.6616 20.749 22.3982 21.1197C22.1349 21.4905 21.7634 21.7709 21.3347 21.9224V23.5289H24.2769C24.472 23.5289 24.6591 23.6064 24.797 23.7443C24.935 23.8823 25.0124 24.0694 25.0124 24.2644ZM21.3347 17.5179C21.3346 17.3232 21.2574 17.1365 21.1199 16.9986L20.2946 16.1733H4.72144L3.89615 16.9986C3.75864 17.1365 3.68141 17.3232 3.68136 17.5179V19.8511C3.68136 20.0462 3.75886 20.2333 3.8968 20.3712C4.03475 20.5092 4.22184 20.5867 4.41692 20.5867H20.5991C20.7942 20.5867 20.9813 20.5092 21.1192 20.3712C21.2572 20.2333 21.3347 20.0462 21.3347 19.8511V17.5179ZM5.60705 14.7022H19.409L17.4053 10.6949C17.3442 10.5729 17.2503 10.4703 17.1342 10.3986C17.018 10.3269 16.8842 10.2889 16.7478 10.2889H8.26828C8.1318 10.2889 7.998 10.3269 7.88187 10.3986C7.76574 10.4703 7.67184 10.5729 7.6107 10.6949L5.60705 14.7022ZM8.09469 23.5289V22.0578H5.15247V23.5289H8.09469ZM15.4502 23.5289V22.0578H9.5658V23.5289H15.4502ZM19.8636 23.5289V22.0578H16.9213V23.5289H19.8636ZM7.35914 17.6445H5.88803C5.69295 17.6445 5.50586 17.7219 5.36791 17.8599C5.22997 17.9978 5.15247 18.1849 5.15247 18.38C5.15247 18.5751 5.22997 18.7622 5.36791 18.9001C5.50586 19.0381 5.69295 19.1156 5.88803 19.1156H7.35914C7.55422 19.1156 7.74131 19.0381 7.87925 18.9001C8.0172 18.7622 8.09469 18.5751 8.09469 18.38C8.09469 18.1849 8.0172 17.9978 7.87925 17.8599C7.74131 17.7219 7.55422 17.6445 7.35914 17.6445ZM19.128 17.6445H17.6569C17.4618 17.6445 17.2747 17.7219 17.1368 17.8599C16.9988 17.9978 16.9213 18.1849 16.9213 18.38C16.9213 18.5751 16.9988 18.7622 17.1368 18.9001C17.2747 19.0381 17.4618 19.1156 17.6569 19.1156H19.128C19.3231 19.1156 19.5102 19.0381 19.6481 18.9001C19.7861 18.7622 19.8636 18.5751 19.8636 18.38C19.8636 18.1849 19.7861 17.9978 19.6481 17.8599C19.5102 17.7219 19.3231 17.6445 19.128 17.6445Z" fill="black"/>
</svg>
