<svg width="21" height="25" viewBox="0 0 21 25" fill="none" xmlns="http://www.w3.org/2000/svg">
<path d="M10.3222 10.9467C12.7876 10.9467 15.1052 11.6535 16.831 12.9356C18.4418 14.1354 19.313 15.6805 19.313 17.3077C19.313 18.9349 18.4254 20.4799 16.831 21.6798C15.1052 22.9619 12.8041 23.6686 10.3222 23.6686C7.84024 23.6686 5.53912 22.9619 3.81328 21.6798C2.2025 20.4799 1.33136 18.9349 1.33136 17.3077C1.33136 15.6805 2.21894 14.1354 3.81328 12.9356C5.53912 11.6535 7.85667 10.9467 10.3222 10.9467ZM10.3222 9.61539C4.61867 9.61539 0 13.0506 0 17.3077C0 21.5648 4.61867 25 10.3222 25C16.0256 25 20.6443 21.5648 20.6443 17.3077C20.6443 13.0506 16.0256 9.61539 10.3222 9.61539Z" fill="black"/>
<path d="M17.5707 3.89546L10.9961 1.49573V0.657462C10.9961 0.295858 10.7002 0 10.3386 0C9.97699 0 9.68113 0.295858 9.68113 0.657462V16.9132C7.92242 17.1433 6.59106 18.2281 6.59106 19.5431C6.59106 21.0224 8.26759 22.2058 10.355 22.2058C12.4425 22.2058 14.119 21.0059 14.119 19.5431C14.119 18.2281 12.7876 17.1433 11.0289 16.9132V7.57725L17.6036 5.14464C17.8665 5.04602 18.0309 4.79947 18.0309 4.52005C18.0145 4.24063 17.8337 3.99408 17.5707 3.89546ZM7.90598 19.5431C7.90598 19.0171 8.62919 18.4418 9.68113 18.261V20.8251C8.62919 20.6607 7.90598 20.069 7.90598 19.5431ZM12.7712 19.5431C12.7712 20.069 12.048 20.6443 11.0125 20.8251V18.261C12.048 18.4418 12.7712 19.0171 12.7712 19.5431ZM10.9961 6.16371V2.90927L15.4175 4.52005L10.9961 6.16371Z" fill="black"/>
</svg>
