<svg width="25" height="25" viewBox="0 0 25 25" fill="none" xmlns="http://www.w3.org/2000/svg">
<path d="M23.0469 21.875H22.2656V14.0234C22.7062 13.9322 23.102 13.6922 23.3865 13.3437C23.671 12.9951 23.827 12.5593 23.8281 12.1094V11.3281C23.8286 11.255 23.8083 11.1832 23.7695 11.1211L21.8164 7.99609C21.7809 7.9401 21.7319 7.89394 21.6739 7.86186C21.6158 7.82978 21.5507 7.8128 21.4844 7.8125H16.4062V7.03125H18.3594C18.6699 7.03032 18.9674 6.90656 19.187 6.68699C19.4066 6.46742 19.5303 6.16989 19.5312 5.85938V1.95312C19.5303 1.64261 19.4066 1.34508 19.187 1.12551C18.9674 0.90594 18.6699 0.782177 18.3594 0.78125H6.64062C6.33011 0.782177 6.03258 0.90594 5.81301 1.12551C5.59344 1.34508 5.46968 1.64261 5.46875 1.95312V5.85938C5.46968 6.16989 5.59344 6.46742 5.81301 6.68699C6.03258 6.90656 6.33011 7.03032 6.64062 7.03125H8.59375V7.8125H3.51562C3.44932 7.8128 3.38417 7.82978 3.32614 7.86186C3.26812 7.89394 3.2191 7.9401 3.18359 7.99609L1.23047 11.1211C1.19171 11.1832 1.17139 11.255 1.17188 11.3281V12.1094C1.17303 12.5593 1.32896 12.9951 1.61348 13.3437C1.898 13.6922 2.29379 13.9322 2.73438 14.0234V21.875H1.95312C1.64261 21.8759 1.34508 21.9997 1.12551 22.2193C0.90594 22.4388 0.782177 22.7364 0.78125 23.0469V23.8281C0.78125 23.9317 0.822405 24.0311 0.895661 24.1043C0.968918 24.1776 1.06827 24.2188 1.17188 24.2188H23.8281C23.9317 24.2188 24.0311 24.1776 24.1043 24.1043C24.1776 24.0311 24.2188 23.9317 24.2188 23.8281V23.0469C24.2178 22.7364 24.0941 22.4388 23.8745 22.2193C23.6549 21.9997 23.3574 21.8759 23.0469 21.875ZM23.0469 12.1094C23.0469 12.4202 22.9234 12.7182 22.7036 12.938C22.4839 13.1578 22.1858 13.2812 21.875 13.2812C21.5642 13.2812 21.2661 13.1578 21.0464 12.938C20.8266 12.7182 20.7031 12.4202 20.7031 12.1094V11.7188H23.0469V12.1094ZM17.1875 15.625H7.8125C7.50198 15.6259 7.20445 15.7497 6.98488 15.9693C6.76532 16.1888 6.64155 16.4864 6.64062 16.7969V21.875H3.51562V14.0234C3.98598 13.9256 4.40345 13.657 4.6875 13.2695C4.86725 13.5153 5.10242 13.7151 5.37391 13.8529C5.6454 13.9907 5.94555 14.0625 6.25 14.0625C6.55445 14.0625 6.8546 13.9907 7.12609 13.8529C7.39758 13.7151 7.63275 13.5153 7.8125 13.2695C7.99225 13.5153 8.22742 13.7151 8.49891 13.8529C8.7704 13.9907 9.07055 14.0625 9.375 14.0625C9.67945 14.0625 9.9796 13.9907 10.2511 13.8529C10.5226 13.7151 10.7578 13.5153 10.9375 13.2695C11.1172 13.5153 11.3524 13.7151 11.6239 13.8529C11.8954 13.9907 12.1956 14.0625 12.5 14.0625C12.8044 14.0625 13.1046 13.9907 13.3761 13.8529C13.6476 13.7151 13.8828 13.5153 14.0625 13.2695C14.2422 13.5153 14.4774 13.7151 14.7489 13.8529C15.0204 13.9907 15.3206 14.0625 15.625 14.0625C15.9294 14.0625 16.2296 13.9907 16.5011 13.8529C16.7726 13.7151 17.0078 13.5153 17.1875 13.2695C17.3672 13.5153 17.6024 13.7151 17.8739 13.8529C18.1454 13.9907 18.4456 14.0625 18.75 14.0625C19.0544 14.0625 19.3546 13.9907 19.6261 13.8529C19.8976 13.7151 20.1328 13.5153 20.3125 13.2695C20.5966 13.657 21.014 13.9256 21.4844 14.0234V21.875H18.3594V16.7969C18.3584 16.4864 18.2347 16.1888 18.0151 15.9693C17.7955 15.7497 17.498 15.6259 17.1875 15.625ZM17.5781 16.7969V21.875H12.8906V16.4062H17.1875C17.2911 16.4062 17.3905 16.4474 17.4637 16.5207C17.537 16.5939 17.5781 16.6933 17.5781 16.7969ZM12.1094 16.4062V21.875H7.42188V16.7969C7.42188 16.6933 7.46303 16.5939 7.53629 16.5207C7.60954 16.4474 7.7089 16.4062 7.8125 16.4062H12.1094ZM5.07812 12.1094V11.7188H7.42188V12.1094C7.42188 12.4202 7.29841 12.7182 7.07864 12.938C6.85887 13.1578 6.5608 13.2812 6.25 13.2812C5.9392 13.2812 5.64113 13.1578 5.42136 12.938C5.20159 12.7182 5.07812 12.4202 5.07812 12.1094ZM8.20312 12.1094V11.7188H10.5469V12.1094C10.5469 12.4202 10.4234 12.7182 10.2036 12.938C9.98387 13.1578 9.6858 13.2812 9.375 13.2812C9.0642 13.2812 8.76613 13.1578 8.54636 12.938C8.32659 12.7182 8.20312 12.4202 8.20312 12.1094ZM13.6719 11.7188V12.1094C13.6719 12.4202 13.5484 12.7182 13.3286 12.938C13.1089 13.1578 12.8108 13.2812 12.5 13.2812C12.1892 13.2812 11.8911 13.1578 11.6714 12.938C11.4516 12.7182 11.3281 12.4202 11.3281 12.1094V11.7188H13.6719ZM11.3789 10.9375L11.6719 8.59375H13.3281L13.6211 10.9375H11.3789ZM9.375 7.8125V7.03125H15.625V7.8125H9.375ZM14.4531 12.1094V11.7188H16.7969V12.1094C16.7969 12.4202 16.6734 12.7182 16.4536 12.938C16.2339 13.1578 15.9358 13.2812 15.625 13.2812C15.3142 13.2812 15.0161 13.1578 14.7964 12.938C14.5766 12.7182 14.4531 12.4202 14.4531 12.1094ZM17.5781 12.1094V11.7188H19.9219V12.1094C19.9219 12.4202 19.7984 12.7182 19.5786 12.938C19.3589 13.1578 19.0608 13.2812 18.75 13.2812C18.4392 13.2812 18.1411 13.1578 17.9214 12.938C17.7016 12.7182 17.5781 12.4202 17.5781 12.1094ZM21.2695 8.59375L22.7344 10.9375H20.5547L19.3828 8.59375H21.2695ZM18.5078 8.59375L19.6797 10.9375H17.457L16.5781 8.59375H18.5078ZM16.625 10.9375H14.4062L14.1133 8.59375H15.7461L16.625 10.9375ZM6.64062 6.25C6.53702 6.25 6.43767 6.20885 6.36441 6.13559C6.29115 6.06233 6.25 5.96298 6.25 5.85938V1.95312C6.25 1.84952 6.29115 1.75017 6.36441 1.67691C6.43767 1.60366 6.53702 1.5625 6.64062 1.5625H18.3594C18.463 1.5625 18.5623 1.60366 18.6356 1.67691C18.7088 1.75017 18.75 1.84952 18.75 1.95312V5.85938C18.75 5.96298 18.7088 6.06233 18.6356 6.13559C18.5623 6.20885 18.463 6.25 18.3594 6.25H6.64062ZM9.25391 8.59375H10.8867L10.5938 10.9375H8.375L9.25391 8.59375ZM8.42188 8.59375L7.54297 10.9375H5.32031L6.49219 8.59375H8.42188ZM3.73047 8.59375H5.61719L4.44531 10.9375H2.26563L3.73047 8.59375ZM1.95312 12.1094V11.7188H4.29688V12.1094C4.29688 12.4202 4.17341 12.7182 3.95364 12.938C3.73387 13.1578 3.4358 13.2812 3.125 13.2812C2.8142 13.2812 2.51613 13.1578 2.29636 12.938C2.07659 12.7182 1.95312 12.4202 1.95312 12.1094ZM23.4375 23.4375H1.5625V23.0469C1.5625 22.9433 1.60366 22.8439 1.67691 22.7707C1.75017 22.6974 1.84952 22.6562 1.95312 22.6562H23.0469C23.1505 22.6562 23.2498 22.6974 23.3231 22.7707C23.3963 22.8439 23.4375 22.9433 23.4375 23.0469V23.4375Z" fill="black"/>
</svg>
