<svg width="25" height="25" viewBox="0 0 25 25" fill="none" xmlns="http://www.w3.org/2000/svg">
<path d="M0.625 25H24.375C24.5408 25 24.6997 24.9342 24.8169 24.8169C24.9342 24.6997 25 24.5408 25 24.375V9.375C25 9.20924 24.9342 9.05027 24.8169 8.93306C24.6997 8.81585 24.5408 8.75 24.375 8.75H21.25V3.125C21.25 2.95924 21.1842 2.80027 21.0669 2.68306C20.9497 2.56585 20.7908 2.5 20.625 2.5H17.5V1.875C17.5 1.37772 17.3025 0.900806 16.9508 0.549175C16.5992 0.197544 16.1223 0 15.625 0H9.375C8.87772 0 8.40081 0.197544 8.04917 0.549175C7.69754 0.900806 7.5 1.37772 7.5 1.875V2.5H4.375C4.20924 2.5 4.05027 2.56585 3.93306 2.68306C3.81585 2.80027 3.75 2.95924 3.75 3.125V8.75H0.625C0.45924 8.75 0.300269 8.81585 0.183058 8.93306C0.0658481 9.05027 0 9.20924 0 9.375V24.375C0 24.5408 0.0658481 24.6997 0.183058 24.8169C0.300269 24.9342 0.45924 25 0.625 25ZM21.25 10H23.75V23.75H21.25V10ZM14.375 23.75H10.625V19.375H14.375V23.75ZM8.75 1.875C8.75 1.70924 8.81585 1.55027 8.93306 1.43306C9.05027 1.31585 9.20924 1.25 9.375 1.25H15.625C15.7908 1.25 15.9497 1.31585 16.0669 1.43306C16.1842 1.55027 16.25 1.70924 16.25 1.875V8.125C16.25 8.29076 16.1842 8.44973 16.0669 8.56694C15.9497 8.68415 15.7908 8.75 15.625 8.75H9.375C9.20924 8.75 9.05027 8.68415 8.93306 8.56694C8.81585 8.44973 8.75 8.29076 8.75 8.125V1.875ZM5 3.75H7.5V8.125C7.5 8.62228 7.69754 9.09919 8.04917 9.45083C8.40081 9.80246 8.87772 10 9.375 10H15.625C16.1223 10 16.5992 9.80246 16.9508 9.45083C17.3025 9.09919 17.5 8.62228 17.5 8.125V3.75H20V23.75H15.625V18.75C15.625 18.5842 15.5592 18.4253 15.4419 18.3081C15.3247 18.1908 15.1658 18.125 15 18.125H10C9.83424 18.125 9.67527 18.1908 9.55806 18.3081C9.44085 18.4253 9.375 18.5842 9.375 18.75V23.75H5V3.75ZM1.25 10H3.75V23.75H1.25V10Z" fill="black"/>
<path d="M10.625 5.625H11.875V6.875C11.875 7.04076 11.9408 7.19973 12.0581 7.31694C12.1753 7.43415 12.3342 7.5 12.5 7.5C12.6658 7.5 12.8247 7.43415 12.9419 7.31694C13.0592 7.19973 13.125 7.04076 13.125 6.875V5.625H14.375C14.5408 5.625 14.6997 5.55915 14.8169 5.44194C14.9342 5.32473 15 5.16576 15 5C15 4.83424 14.9342 4.67527 14.8169 4.55806C14.6997 4.44085 14.5408 4.375 14.375 4.375H13.125V3.125C13.125 2.95924 13.0592 2.80027 12.9419 2.68306C12.8247 2.56585 12.6658 2.5 12.5 2.5C12.3342 2.5 12.1753 2.56585 12.0581 2.68306C11.9408 2.80027 11.875 2.95924 11.875 3.125V4.375H10.625C10.4592 4.375 10.3003 4.44085 10.1831 4.55806C10.0658 4.67527 10 4.83424 10 5C10 5.16576 10.0658 5.32473 10.1831 5.44194C10.3003 5.55915 10.4592 5.625 10.625 5.625Z" fill="black"/>
<path d="M8.125 13.125H9.375C9.54076 13.125 9.69973 13.0592 9.81694 12.9419C9.93415 12.8247 10 12.6658 10 12.5C10 12.3342 9.93415 12.1753 9.81694 12.0581C9.69973 11.9408 9.54076 11.875 9.375 11.875H8.125C7.95924 11.875 7.80027 11.9408 7.68306 12.0581C7.56585 12.1753 7.5 12.3342 7.5 12.5C7.5 12.6658 7.56585 12.8247 7.68306 12.9419C7.80027 13.0592 7.95924 13.125 8.125 13.125Z" fill="black"/>
<path d="M10 15.625C10 15.4592 9.93415 15.3003 9.81694 15.1831C9.69973 15.0658 9.54076 15 9.375 15H8.125C7.95924 15 7.80027 15.0658 7.68306 15.1831C7.56585 15.3003 7.5 15.4592 7.5 15.625C7.5 15.7908 7.56585 15.9497 7.68306 16.0669C7.80027 16.1842 7.95924 16.25 8.125 16.25H9.375C9.54076 16.25 9.69973 16.1842 9.81694 16.0669C9.93415 15.9497 10 15.7908 10 15.625Z" fill="black"/>
<path d="M11.875 13.125H13.125C13.2908 13.125 13.4497 13.0592 13.5669 12.9419C13.6842 12.8247 13.75 12.6658 13.75 12.5C13.75 12.3342 13.6842 12.1753 13.5669 12.0581C13.4497 11.9408 13.2908 11.875 13.125 11.875H11.875C11.7092 11.875 11.5503 11.9408 11.4331 12.0581C11.3158 12.1753 11.25 12.3342 11.25 12.5C11.25 12.6658 11.3158 12.8247 11.4331 12.9419C11.5503 13.0592 11.7092 13.125 11.875 13.125Z" fill="black"/>
<path d="M11.875 16.25H13.125C13.2908 16.25 13.4497 16.1842 13.5669 16.0669C13.6842 15.9497 13.75 15.7908 13.75 15.625C13.75 15.4592 13.6842 15.3003 13.5669 15.1831C13.4497 15.0658 13.2908 15 13.125 15H11.875C11.7092 15 11.5503 15.0658 11.4331 15.1831C11.3158 15.3003 11.25 15.4592 11.25 15.625C11.25 15.7908 11.3158 15.9497 11.4331 16.0669C11.5503 16.1842 11.7092 16.25 11.875 16.25Z" fill="black"/>
<path d="M15.625 13.125H16.875C17.0408 13.125 17.1997 13.0592 17.3169 12.9419C17.4342 12.8247 17.5 12.6658 17.5 12.5C17.5 12.3342 17.4342 12.1753 17.3169 12.0581C17.1997 11.9408 17.0408 11.875 16.875 11.875H15.625C15.4592 11.875 15.3003 11.9408 15.1831 12.0581C15.0658 12.1753 15 12.3342 15 12.5C15 12.6658 15.0658 12.8247 15.1831 12.9419C15.3003 13.0592 15.4592 13.125 15.625 13.125Z" fill="black"/>
<path d="M15.625 16.25H16.875C17.0408 16.25 17.1997 16.1842 17.3169 16.0669C17.4342 15.9497 17.5 15.7908 17.5 15.625C17.5 15.4592 17.4342 15.3003 17.3169 15.1831C17.1997 15.0658 17.0408 15 16.875 15H15.625C15.4592 15 15.3003 15.0658 15.1831 15.1831C15.0658 15.3003 15 15.4592 15 15.625C15 15.7908 15.0658 15.9497 15.1831 16.0669C15.3003 16.1842 15.4592 16.25 15.625 16.25Z" fill="black"/>
</svg>
