<svg width="23" height="25" viewBox="0 0 23 25" fill="none" xmlns="http://www.w3.org/2000/svg">
<path d="M20.4327 0H2.16351C0.970459 0 0 0.970459 0 2.16351V22.8365C0 24.0295 0.970459 25 2.16351 25H20.4327C21.6257 25 22.5962 24.0295 22.5962 22.8365V2.16351C22.5962 0.970459 21.6257 0 20.4327 0ZM1.44234 2.16351C1.44234 1.76582 1.76582 1.44234 2.16351 1.44234H20.4327C20.8303 1.44234 21.1538 1.76582 21.1538 2.16351V5.04799H1.44234V2.16351ZM21.1538 22.8365C21.1538 23.2342 20.8303 23.5577 20.4327 23.5577H2.16351C1.76582 23.5577 1.44234 23.2342 1.44234 22.8365V6.49033H21.1538V22.8365Z" fill="black"/>
<path d="M16.1051 2.52399H14.6631C14.2649 2.52399 13.942 2.84691 13.942 3.24516C13.942 3.64342 14.2649 3.96633 14.6631 3.96633H16.1051C16.5033 3.96633 16.8262 3.64342 16.8262 3.24516C16.8262 2.84691 16.5033 2.52399 16.1051 2.52399Z" fill="black"/>
<path d="M19.952 2.52399H18.5101C18.1118 2.52399 17.7889 2.84691 17.7889 3.24516C17.7889 3.64342 18.1118 3.96633 18.5101 3.96633H19.952C20.3503 3.96633 20.673 3.64342 20.673 3.24516C20.673 2.84691 20.3503 2.52399 19.952 2.52399Z" fill="black"/>
<path d="M4.32701 15.024C4.32701 18.8679 7.45411 21.9952 11.298 21.9952C15.1421 21.9952 18.2692 18.8679 18.2692 15.024C18.2692 14.8369 18.2615 14.6515 18.247 14.4682C18.247 14.4672 18.2468 14.4663 18.2468 14.4655C17.9613 10.8818 14.954 8.05283 11.298 8.05283C7.64217 8.05283 4.63486 10.8818 4.34933 14.4655C4.34914 14.4663 4.34914 14.4672 4.34914 14.4682C4.33464 14.6515 4.32701 14.8369 4.32701 15.024ZM11.298 20.5528C8.37326 20.5528 5.9721 18.2699 5.78175 15.3927C5.93739 15.4568 6.07529 15.5415 6.23264 15.6382C6.65798 15.9 7.18765 16.226 8.17299 16.226C9.15833 16.226 9.68781 15.9002 10.1133 15.6384C10.466 15.4213 10.7206 15.2645 11.2978 15.2645C11.875 15.2645 12.1298 15.4213 12.4825 15.6384C12.908 15.9 13.4377 16.226 14.423 16.226C15.4083 16.226 15.938 15.9002 16.3635 15.6384C16.5209 15.5415 16.6588 15.4568 16.8142 15.3927C16.6241 18.2699 14.2229 20.5528 11.298 20.5528ZM11.298 9.49516C13.9664 9.49516 16.1993 11.3953 16.7149 13.9135C16.2275 14.0291 15.8936 14.234 15.6076 14.4098C15.255 14.6269 15.0002 14.7837 14.423 14.7837C13.8458 14.7837 13.591 14.6269 13.2383 14.4098C12.8128 14.1479 12.2833 13.822 11.2978 13.822C10.3125 13.822 9.78298 14.1479 9.35745 14.4098C9.00478 14.6269 8.74996 14.7837 8.17299 14.7837C7.59583 14.7837 7.341 14.6269 6.98833 14.4098C6.70242 14.2338 6.36864 14.0289 5.88131 13.9135C6.39687 11.3953 8.6298 9.49516 11.298 9.49516Z" fill="black"/>
</svg>
