<svg width="22" height="25" viewBox="0 0 22 25" fill="none" xmlns="http://www.w3.org/2000/svg">
<path d="M21.0227 0H0.568182C0.253977 0 0 0.254545 0 0.568182V24.4318C0 24.7455 0.253977 25 0.568182 25H21.0227C21.3369 25 21.5909 24.7455 21.5909 24.4318V0.568182C21.5909 0.254545 21.3369 0 21.0227 0ZM4.54545 23.8636V5.11364H10.2273V23.8636H4.54545ZM11.3636 23.8636V5.11364H17.0455V23.8636H11.3636ZM20.4545 23.8636H18.1818V4.54545C18.1818 4.23182 17.9278 3.97727 17.6136 3.97727H3.97727C3.66307 3.97727 3.40909 4.23182 3.40909 4.54545V23.8636H1.13636V1.13636H20.4545V23.8636Z" fill="black"/>
<path d="M19.3295 14.2045C20.0727 14.2011 20.0727 13.0716 19.3295 13.0682C18.5818 13.0665 18.5835 14.2023 19.3295 14.2045Z" fill="black"/>
<path d="M19.3295 15.9091C20.0727 15.9057 20.0727 14.7761 19.3295 14.7727C18.5818 14.771 18.5835 15.9068 19.3295 15.9091Z" fill="black"/>
<path d="M9.65909 3.40909H11.9318C12.6744 3.40625 12.6756 2.27557 11.9318 2.27273H9.65909C8.91648 2.27557 8.91534 3.40625 9.65909 3.40909Z" fill="black"/>
</svg>
