<svg width="32" height="25" viewBox="0 0 32 25" fill="none" xmlns="http://www.w3.org/2000/svg">
<path d="M31.1353 24.6995C31.2449 24.5132 31.2477 24.283 31.1428 24.0941L21.9964 7.63067C21.8889 7.43713 21.6849 7.31707 21.4634 7.31707C21.242 7.31707 21.038 7.43713 20.9305 7.63073L18.7833 11.4955C18.2797 10.5724 15.0503 4.65195 14.6817 3.97628C14.577 3.78439 14.3775 3.66311 14.1589 3.65866C13.9407 3.65512 13.736 3.76701 13.6235 3.95463L8.31332 12.8049H4.26832C4.00588 12.8049 3.77289 12.9728 3.68984 13.2218L0.0313061 24.1974C-0.0307061 24.3834 0.00051337 24.5877 0.115148 24.7468C0.229721 24.9058 0.413806 25 0.609782 25H6.15856C6.49533 25 6.76832 24.727 6.76832 24.3902C6.76832 24.0535 6.49533 23.7805 6.15856 23.7805H1.45582L4.70783 14.0244H8.21911L9.90942 19.0952C10.0267 19.4473 10.4291 19.6135 10.7606 19.4478L13.8737 17.8912L16.8183 23.7805H11.6464C11.3096 23.7805 11.0366 24.0535 11.0366 24.3902C11.0366 24.727 11.3096 25 11.6464 25H30.6098C30.8258 25 31.0258 24.8857 31.1353 24.6995ZM21.4634 9.18238L24.0721 13.878C23.2939 14.3736 22.4019 14.6341 21.4634 14.6341C21.1164 14.6341 20.7718 14.5971 20.4355 14.5251L19.4743 12.7626L21.4634 9.18238ZM14.1212 5.49543L16.7123 10.2463C15.9435 10.7243 15.0663 10.9756 14.1464 10.9756C13.1447 10.9756 12.1725 10.6668 11.3587 10.0995L14.1212 5.49543ZM18.1817 23.7805L14.6917 16.8005C14.5411 16.4993 14.1749 16.3773 13.8736 16.5277L10.8439 18.0426L9.32563 13.4879L10.7302 11.1469C11.7336 11.826 12.9225 12.1951 14.1464 12.1951C15.2735 12.1951 16.3497 11.8935 17.2972 11.3187C17.5598 11.8001 23.6242 22.9177 24.0948 23.7805H18.1817ZM25.4839 23.7805L21.1555 15.8451C21.258 15.8502 21.3606 15.8537 21.4634 15.8537C22.6127 15.8537 23.7064 15.5412 24.6654 14.9459L29.5735 23.7805H25.4839Z" fill="black"/>
<path d="M27.8659 0C26.0167 0 24.5122 1.50445 24.5122 3.35366C24.5122 5.20287 26.0167 6.70732 27.8659 6.70732C29.7151 6.70732 31.2195 5.20287 31.2195 3.35366C31.2195 1.50445 29.7151 0 27.8659 0ZM27.8659 5.4878C26.6891 5.4878 25.7317 4.53043 25.7317 3.35366C25.7317 2.17689 26.6891 1.21951 27.8659 1.21951C29.0426 1.21951 30 2.17689 30 3.35366C30 4.53043 29.0426 5.4878 27.8659 5.4878Z" fill="black"/>
<path d="M8.90246 24.9999C9.23922 24.9999 9.51222 24.7269 9.51222 24.3902C9.51222 24.0534 9.23922 23.7804 8.90246 23.7804C8.56571 23.7804 8.29271 24.0534 8.29271 24.3902C8.29271 24.7269 8.56571 24.9999 8.90246 24.9999Z" fill="black"/>
</svg>
