<svg width="25" height="26" viewBox="0 0 25 26" fill="none" xmlns="http://www.w3.org/2000/svg">
<path d="M24.5832 19.9191C24.8133 19.9191 24.9998 19.7325 24.9998 19.5025C24.9998 19.2723 24.8133 19.0858 24.5832 19.0858H24.1666C24.1666 18.8557 23.98 18.6692 23.7499 18.6692C23.5198 18.6692 23.3333 18.8557 23.3333 19.0858H16.6667C16.6667 18.8557 16.4801 18.6692 16.2501 18.6692C16.0199 18.6692 15.8334 18.8557 15.8334 19.0858H15.4168C15.1866 19.0858 15.0001 19.2724 15.0001 19.5025C15.0001 19.7326 15.1866 19.9191 15.4168 19.9191H15.8334V21.1691H15.4168C15.1866 21.1691 15.0001 21.3556 15.0001 21.5857C15.0001 21.8158 15.1866 22.0024 15.4168 22.0024H15.8334V22.419H15.4168C15.1866 22.419 15.0001 22.6056 15.0001 22.8357C15.0001 23.0657 15.1866 23.2523 15.4168 23.2523H15.8334V24.5023H8.75014V21.0551C9.36649 21.4024 10.0619 21.5851 10.7693 21.5857C13.1355 21.5516 15.0278 19.6091 15 17.2429C15.0129 15.5977 14.0942 14.0868 12.6276 13.3412C13.1104 12.6839 13.3691 11.8887 13.3655 11.0732C13.38 9.27326 12.1174 7.71528 10.3535 7.35659C10.7998 6.37233 10.7231 5.22987 10.1491 4.31417C9.57523 3.39841 8.58052 2.83128 7.50012 2.80389C7.48776 2.80389 7.47585 2.80565 7.46355 2.80579C7.24172 1.37189 5.99922 0.319366 4.54836 0.33626C3.09751 0.353154 1.87991 1.43438 1.69153 2.87308C0.636473 3.07532 -0.0918827 4.04669 0.0096291 5.1162C0.111141 6.18571 1.00927 7.00264 2.08361 7.00269H4.51233C4.54993 7.12251 4.59451 7.24004 4.64582 7.35464C2.88199 7.71454 1.62 9.27311 1.63479 11.0732C1.63123 11.8888 1.88992 12.6839 2.37267 13.3412C0.906146 14.0869 -0.0125385 15.5978 0.0003031 17.2429C-0.0275284 19.6091 1.86482 21.5516 4.23099 21.5857C4.93845 21.5852 5.63384 21.4025 6.25019 21.0551V24.5023H0.416995C0.186872 24.5023 0.000351924 24.6888 0.000351924 24.919C0.000351924 25.1491 0.186872 25.3356 0.416995 25.3356H24.5832C24.8133 25.3356 24.9998 25.1491 24.9998 24.919C24.9998 24.6888 24.8133 24.5023 24.5832 24.5023H24.1666V23.2523H24.5832C24.8133 23.2523 24.9998 23.0658 24.9998 22.8357C24.9998 22.6056 24.8133 22.4191 24.5832 22.4191H24.1666V22.0024H24.5832C24.8133 22.0024 24.9998 21.8159 24.9998 21.5858C24.9998 21.3557 24.8133 21.1691 24.5832 21.1691H24.1666V19.9192L24.5832 19.9191ZM4.35916 6.02532C4.35916 6.0737 4.36463 6.12126 4.36678 6.16936H2.08361C1.3933 6.16936 0.833638 5.60975 0.833638 4.91938C0.833638 4.22901 1.3933 3.6694 2.08361 3.6694C2.19411 3.66945 2.30011 3.62556 2.37829 3.54738C2.45641 3.46926 2.50031 3.36326 2.50031 3.25271C2.49816 2.16533 3.33423 1.25997 4.41834 1.1757C5.50245 1.09137 6.4684 1.85664 6.63441 2.93128C5.27545 3.34636 4.35032 4.60444 4.35916 6.02532ZM7.91686 24.5024H7.08352V20.4426C7.23284 20.3036 7.37209 20.1541 7.50017 19.9952C7.62824 20.1541 7.7675 20.3036 7.91681 20.4426L7.91686 24.5024ZM7.96744 19.2077L10.7114 16.4637C10.8716 16.3006 10.8704 16.0389 10.7088 15.8772C10.5471 15.7156 10.2854 15.7144 10.1222 15.8746L7.91686 18.0799V13.8417L9.87805 11.8805C10.039 11.7175 10.0382 11.4552 9.8762 11.2932C9.71424 11.1312 9.45189 11.1304 9.28885 11.2913L7.91681 12.6634V10.7526C7.91681 10.5225 7.73024 10.336 7.50017 10.336C7.27004 10.336 7.08352 10.5225 7.08352 10.7526V12.6634L5.71148 11.2913C5.54849 11.1304 5.28614 11.1312 5.12414 11.2932C4.96213 11.4551 4.96135 11.7175 5.12228 11.8805L7.08348 13.8418V18.08L4.87809 15.8746C4.71511 15.7137 4.45276 15.7145 4.29075 15.8765C4.12879 16.0384 4.12796 16.3008 4.2889 16.4638L7.03284 19.2077C6.42284 20.1662 5.36695 20.7482 4.23089 20.7524C2.32477 20.7189 0.80522 19.1492 0.83354 17.243C0.815864 15.7355 1.76868 14.3873 3.19556 13.9008C3.33349 13.8553 3.43779 13.7413 3.4708 13.5998C3.5038 13.4584 3.46069 13.31 3.35713 13.2082C2.78438 12.6459 2.46369 11.8758 2.46808 11.0732C2.44083 9.48336 3.69818 8.16766 5.28766 8.12284C5.45968 8.13802 5.62408 8.04896 5.70533 7.89657C5.77637 7.75653 5.76245 7.58842 5.66934 7.46201C5.36051 7.04659 5.19332 6.54293 5.19244 6.02527C5.17213 4.7293 6.20424 3.66125 7.50012 3.63723C8.79604 3.66125 9.82815 4.7293 9.80779 6.02527C9.80691 6.54293 9.63973 7.04659 9.3309 7.46201C9.23969 7.5895 9.22826 7.75751 9.3014 7.89618C9.37504 8.03685 9.52083 8.12484 9.67962 8.12445C11.2806 8.15326 12.5564 9.47213 12.5322 11.0732C12.5365 11.8758 12.2158 12.6459 11.6431 13.2082C11.5395 13.31 11.4964 13.4584 11.5294 13.5998C11.5624 13.7413 11.6667 13.8553 11.8047 13.9008C13.4049 14.4603 14.3805 16.0795 14.1271 17.7558C13.8738 19.432 12.4635 20.6907 10.7693 20.7524C9.63328 20.7482 8.57744 20.1662 7.96744 19.2077ZM23.3332 24.5024H16.6667V23.2524H23.3332V24.5024ZM23.3332 22.4191H16.6667V22.0024H23.3332V22.4191ZM23.3332 21.1691H16.6667V19.9191H23.3332V21.1691Z" fill="black"/>
<path d="M17.9167 10.7526H22.9166C23.9909 10.7526 24.889 9.93565 24.9906 8.86613C25.0921 7.79662 24.3637 6.82525 23.3086 6.62306C23.1179 5.17143 21.8807 4.08609 20.4166 4.08609C18.9525 4.08609 17.7153 5.17143 17.5246 6.62306C16.4695 6.82525 15.7412 7.79662 15.8427 8.86613C15.9442 9.93565 16.8423 10.7526 17.9167 10.7526ZM17.9167 7.41933C18.0272 7.41938 18.1332 7.37549 18.2113 7.29732C18.2895 7.21919 18.3334 7.11319 18.3334 7.00264C18.3334 5.85208 19.2661 4.91933 20.4167 4.91933C21.5672 4.91933 22.5 5.85203 22.5 7.00264C22.4999 7.11314 22.5438 7.21914 22.622 7.29732C22.7001 7.37544 22.8061 7.41933 22.9167 7.41933C23.607 7.41933 24.1667 7.97899 24.1667 8.66931C24.1667 9.35963 23.6071 9.91929 22.9167 9.91929H17.9168C17.2265 9.91929 16.6668 9.35968 16.6668 8.66931C16.6668 7.97894 17.2263 7.41933 17.9167 7.41933Z" fill="black"/>
</svg>
