<svg width="24" height="25" viewBox="0 0 24 25" fill="none" xmlns="http://www.w3.org/2000/svg">
<path d="M5.37084 6.15204C5.10131 6.15204 4.88256 6.37079 4.88256 6.64033C4.88256 6.90986 5.10131 7.12861 5.37084 7.12861C5.64037 7.12861 5.85912 6.90986 5.85912 6.64033C5.85912 6.37079 5.64037 6.15204 5.37084 6.15204Z" fill="black"/>
<path d="M9.76513 15.2824H8.30038V13.8177C8.30038 13.548 8.08173 13.3294 7.8121 13.3294C7.54247 13.3294 7.32387 13.548 7.32387 13.8177V15.2824H5.85912C5.5895 15.2824 5.37084 15.5011 5.37084 15.7706C5.37084 16.0402 5.5895 16.2589 5.85912 16.2589H7.32387V17.7237C7.32387 17.9933 7.54252 18.2119 7.8121 18.2119C8.08168 18.2119 8.30038 17.9933 8.30038 17.7237V16.2589H9.76513C10.0348 16.2589 10.2534 16.0403 10.2534 15.7706C10.2534 15.501 10.0348 15.2824 9.76513 15.2824Z" fill="black"/>
<path d="M22.9432 15.7219C21.8638 13.8524 19.4773 13.2126 17.6075 14.2922L15.6243 15.4372V11.1972C15.6243 10.673 15.4509 10.1529 15.136 9.73246L12.6948 6.47753V5.0915C13.263 4.88994 13.6713 4.34726 13.6713 3.71069V1.46474C13.6712 0.657079 13.0141 0 12.2064 0H3.41782C2.61015 0 1.95303 0.657079 1.95303 1.46474V3.71074C1.95303 4.34721 2.36128 4.88999 2.92954 5.09155V6.47758L0.488085 9.73271C0.17334 10.1529 0 10.673 0 11.1972V20.6532C0 21.9994 1.09516 23.0945 2.44126 23.0945H10.288C11.3828 24.9296 13.7434 25.5438 15.5939 24.4753L21.5136 21.0575C23.3669 19.9873 24.028 17.6015 22.9432 15.7219ZM2.92954 1.46474C2.92954 1.19551 3.14858 0.976464 3.41777 0.976464H12.2064C12.4756 0.976464 12.6947 1.19551 12.6947 1.46474V3.71074C12.6947 3.97998 12.4756 4.19897 12.2064 4.19897H3.41782C3.14858 4.19897 2.92959 3.97993 2.92959 3.71074L2.92954 1.46474ZM1.26953 10.3183L3.80839 6.93324C3.87177 6.84877 3.90605 6.74594 3.90605 6.64028V5.17553H11.7182V6.15204H7.32387C7.05424 6.15204 6.83559 6.3707 6.83559 6.64033C6.83559 6.90995 7.05424 7.12861 7.32387 7.12861H11.9623L14.3545 10.3182C14.5109 10.5269 14.608 10.7766 14.6373 11.0347H0.986913C1.01621 10.7766 1.11333 10.5268 1.26953 10.3183ZM2.44131 22.118C1.63364 22.118 0.976561 21.4609 0.976561 20.6532V20.1601H9.8474C9.69257 20.7932 9.69359 21.4694 9.87089 22.118H2.44131V22.118ZM10.2304 19.1885H0.976513V12.0111H14.6477V16.001L11.6878 17.71C11.0706 18.0665 10.5718 18.574 10.2304 19.1885ZM15.1057 23.6296C13.7045 24.4387 11.914 23.9602 11.1043 22.558C10.2908 21.1423 10.7838 19.3599 12.1762 18.5556L14.8264 17.0255L17.7559 22.0994L15.1057 23.6296ZM21.0253 20.2118L18.6016 21.6112L15.6721 16.5371L18.0958 15.1379C19.4979 14.3285 21.2878 14.8078 22.0975 16.21C22.9107 17.6193 22.4162 19.4087 21.0253 20.2118Z" fill="black"/>
</svg>
