<svg width="25" height="25" viewBox="0 0 25 25" fill="none" xmlns="http://www.w3.org/2000/svg">
<path d="M12.5 5.56641C8.67681 5.56641 5.56641 8.67681 5.56641 12.5C5.56641 16.3232 8.67681 19.4336 12.5 19.4336C16.3232 19.4336 19.4336 16.3232 19.4336 12.5C19.4336 8.67681 16.3232 5.56641 12.5 5.56641ZM12.5 18.457C9.21528 18.457 6.54297 15.7847 6.54297 12.5C6.54297 9.21528 9.21528 6.54297 12.5 6.54297C15.7847 6.54297 18.457 9.21528 18.457 12.5C18.457 15.7847 15.7847 18.457 12.5 18.457Z" fill="black"/>
<path d="M24.7408 0.0570313C24.5813 -0.0276367 24.388 -0.0174316 24.2383 0.0836426C21.8413 1.70332 20.4102 4.39746 20.4102 7.29048V13.626C20.4102 14.3056 20.6748 14.9444 21.1553 15.425L22.0703 16.34V23.5352C22.0703 24.3429 22.7274 25 23.5352 25C24.3429 25 25 24.3429 25 23.5352V0.488281C25 0.307666 24.9003 0.141797 24.7408 0.0570313ZM24.0234 23.5352C24.0234 23.8044 23.8044 24.0234 23.5352 24.0234C23.2659 24.0234 23.0469 23.8044 23.0469 23.5352V16.1377C23.0469 16.0082 22.9954 15.884 22.9039 15.7924L21.8458 14.7344C21.5498 14.4383 21.3867 14.0447 21.3867 13.626V7.29048C21.3867 5.04536 22.3575 2.9353 24.0234 1.47935V23.5352Z" fill="black"/>
<path d="M11.3798 8.62759C11.2739 8.37959 10.9869 8.2644 10.739 8.37021C9.08208 9.07754 8.01147 10.6986 8.01147 12.5C8.01147 12.7696 8.23008 12.9883 8.49976 12.9883C8.76943 12.9883 8.98804 12.7696 8.98804 12.5C8.98804 11.0904 9.82583 9.82187 11.1224 9.26841C11.3704 9.16255 11.4856 8.87563 11.3798 8.62759Z" fill="black"/>
<path d="M12.5 8.01147L12.4753 8.01152C12.2057 8.01333 11.9885 8.2334 11.9903 8.50308C11.9921 8.77163 12.2104 8.98809 12.4786 8.98809C12.4796 8.98809 12.4808 8.98809 12.4819 8.98809L12.5 8.98804C12.7697 8.98804 12.9883 8.76943 12.9883 8.49976C12.9883 8.23008 12.7697 8.01147 12.5 8.01147Z" fill="black"/>
<path d="M19.2687 6.07808C18.406 5.16909 17.3891 4.45386 16.2463 3.9523C15.0629 3.43296 13.8024 3.16963 12.5 3.16963C11.0117 3.16963 9.58906 3.50977 8.27158 4.18066C8.0313 4.30303 7.93564 4.59702 8.05801 4.83735C8.18042 5.07759 8.47441 5.17319 8.71475 5.05088C9.89365 4.45059 11.1672 4.14619 12.5 4.14619C14.8143 4.14619 16.9666 5.071 18.5604 6.75034C18.6563 6.85151 18.7854 6.90249 18.9146 6.90249C19.0353 6.90249 19.1562 6.85801 19.2506 6.76836C19.4462 6.58271 19.4543 6.27368 19.2687 6.07808Z" fill="black"/>
<path d="M19.7427 17.5966C19.5312 17.4294 19.2241 17.4653 19.0569 17.6769C17.4605 19.6959 15.0707 20.8538 12.5 20.8538C10.8911 20.8538 9.32925 20.3956 7.98325 19.5287C7.75659 19.3827 7.45435 19.4481 7.30835 19.6748C7.16235 19.9016 7.22778 20.2037 7.45449 20.3497C8.9585 21.3184 10.7032 21.8303 12.5 21.8303C15.3711 21.8303 18.0402 20.5372 19.8229 18.2825C19.9901 18.071 19.9543 17.7639 19.7427 17.5966Z" fill="black"/>
<path d="M6.63857 18.4533L6.6314 18.4451C6.62881 18.4419 6.62622 18.4387 6.62353 18.4355C6.44985 18.2292 6.14185 18.2028 5.93555 18.3765C5.72925 18.5502 5.70278 18.8582 5.87651 19.0645L5.88125 19.0701L5.88149 19.0699C5.88667 19.0765 5.89204 19.083 5.89761 19.0895C5.99419 19.202 6.13081 19.2597 6.26831 19.2597C6.38091 19.2597 6.49404 19.2209 6.58613 19.1419C6.79072 18.9662 6.81421 18.658 6.63857 18.4533Z" fill="black"/>
<path d="M6.05469 5.76751e-08C5.78501 5.76751e-08 5.56641 0.218604 5.56641 0.488281V5.76172H4.68711C4.68716 5.75898 4.6875 5.75635 4.6875 5.75356V0.488281C4.6875 0.218604 4.4689 5.76751e-08 4.19922 5.76751e-08C3.92954 5.76751e-08 3.71094 0.218604 3.71094 0.488281V5.75356C3.71094 5.7563 3.71133 5.75898 3.71133 5.76172H2.83164C2.83169 5.75898 2.83203 5.75635 2.83203 5.75356V0.488281C2.83203 0.218604 2.61343 5.76751e-08 2.34375 5.76751e-08C2.07407 5.76751e-08 1.85547 0.218604 1.85547 0.488281V5.75356C1.85547 5.7563 1.85586 5.75898 1.85586 5.76172H0.976562V0.488281C0.976562 0.218604 0.757959 5.76751e-08 0.488281 5.76751e-08C0.218604 5.76751e-08 0 0.218604 0 0.488281V6.44531C0 7.64307 0.726758 8.72407 1.80664 9.19136V23.5352C1.80664 24.3429 2.46377 25 3.27148 25C4.0792 25 4.73633 24.3429 4.73633 23.5352V9.19136C5.81621 8.72407 6.54297 7.64307 6.54297 6.44531V0.488281C6.54297 0.218604 6.32437 5.76751e-08 6.05469 5.76751e-08ZM4.1125 8.37988C3.90361 8.44023 3.75977 8.63149 3.75977 8.84898V23.5352C3.75977 23.8044 3.54072 24.0234 3.27148 24.0234C3.00225 24.0234 2.7832 23.8044 2.7832 23.5352V8.84898C2.7832 8.63149 2.6394 8.44023 2.43047 8.37988C1.66958 8.16001 1.11304 7.50688 0.998633 6.73828H5.54429C5.42993 7.50688 4.87339 8.16001 4.1125 8.37988Z" fill="black"/>
</svg>
