<svg width="25" height="18" viewBox="0 0 25 18" fill="none" xmlns="http://www.w3.org/2000/svg">
<path d="M24.9997 7.94297V2.84083C24.9997 2.52664 24.7458 2.27267 24.4316 2.27267H22.1589V1.7045C22.1589 0.764753 21.3942 0 20.4544 0H14.7727C13.833 0 13.0682 0.764753 13.0682 1.7045V2.27267H0.568567C0.254939 2.27267 0.000400105 2.52664 0.000400105 2.84083C-0.000736229 5.94019 0.000968272 13.3059 0.000400105 16.4768C0.000400105 16.791 0.254939 17.045 0.568567 17.045H24.4316C24.7458 17.045 24.9997 16.791 24.9997 16.4768C25.0003 16.4763 24.9997 7.94354 24.9997 7.94297ZM23.8634 7.11515L21.8015 6.29018C21.6765 6.24018 21.5379 6.23506 21.4106 6.27881C21.4106 6.27881 19.9652 6.75266 19.8857 6.77539V3.409H23.8628V7.11515H23.8634ZM18.7499 4.54534H14.2046V3.409H18.7499V4.54534ZM14.2046 5.68167H18.7499V6.97709C17.9249 7.03334 17.092 6.90664 16.3153 6.59585C16.0375 6.51631 15.4244 6.13109 15.1296 6.29074C14.8989 6.38336 14.4392 6.57483 14.2046 6.64244C14.2046 6.64187 14.2046 5.68167 14.2046 5.68167ZM19.8862 2.27267V1.7045C19.8862 1.39087 20.1408 1.13633 20.4544 1.13633C20.768 1.13633 21.0226 1.39087 21.0226 1.7045V2.27267H19.8862ZM14.2046 1.7045C14.2046 1.39087 14.4591 1.13633 14.7727 1.13633H18.8545C18.7232 1.44371 18.7493 1.93859 18.7499 2.27267H14.2046V1.7045ZM13.0682 3.409V6.818C12.3978 7.10663 11.2291 6.79755 10.4427 6.51972L9.8706 6.29018C9.58083 6.13052 8.95812 6.51631 8.68483 6.59528C7.01385 7.32538 5.21617 6.91516 3.58951 6.27881C3.46167 6.23506 3.32304 6.23961 3.19861 6.29018L1.13673 7.11515V3.409H13.0682ZM1.13673 15.9087V8.33899L3.42702 7.42253L4.51619 7.78559C6.20706 8.36853 8.04962 8.17308 9.65867 7.42992C11.466 8.2549 13.5319 8.2566 15.3403 7.42992L15.8932 7.65094C17.7249 8.43614 19.7692 8.14808 21.5726 7.42253L23.8628 8.33899V15.9087H1.13673Z" fill="black"/>
</svg>
