<svg width="25" height="19" viewBox="0 0 25 19" fill="none" xmlns="http://www.w3.org/2000/svg">
<path d="M1.70284 18.4323C1.46596 18.4323 1.27376 18.2401 1.27376 18.0032V3.0259C1.27376 2.78902 1.46596 2.59682 1.70284 2.59682C1.93972 2.59682 2.13192 2.78902 2.13192 3.0259V18.0032C2.13262 18.2401 1.94043 18.4323 1.70284 18.4323Z" fill="black"/>
<path d="M3.40071 18.4323C3.16383 18.4323 2.97163 18.2401 2.97163 18.0032V3.0259C2.97163 2.78902 3.16383 2.59682 3.40071 2.59682C3.63759 2.59682 3.82979 2.78902 3.82979 3.0259V18.0032C3.82979 18.2401 3.63759 18.4323 3.40071 18.4323Z" fill="black"/>
<path d="M2.55177 3.73724C1.53404 3.73724 0.705674 2.90887 0.705674 1.89114C0.705674 0.873413 1.53404 0.0450439 2.55177 0.0450439C3.5695 0.0450439 4.39787 0.873413 4.39787 1.89114C4.39787 2.90887 3.5695 3.73724 2.55177 3.73724ZM2.55177 0.903909C2.00709 0.903909 1.56454 1.34717 1.56454 1.89114C1.56454 2.43511 2.0078 2.87838 2.55177 2.87838C3.09574 2.87838 3.53901 2.43511 3.53901 1.89114C3.53901 1.34717 3.09645 0.903909 2.55177 0.903909Z" fill="black"/>
<path d="M21.5993 18.4323C21.3624 18.4323 21.1702 18.2401 21.1702 18.0032V3.0259C21.1702 2.78902 21.3624 2.59682 21.5993 2.59682C21.8362 2.59682 22.0284 2.78902 22.0284 3.0259V18.0032C22.0284 18.2401 21.8362 18.4323 21.5993 18.4323Z" fill="black"/>
<path d="M23.2965 18.4323C23.0596 18.4323 22.8674 18.2401 22.8674 18.0032V3.0259C22.8674 2.78902 23.0596 2.59682 23.2965 2.59682C23.5333 2.59682 23.7255 2.78902 23.7255 3.0259V18.0032C23.7262 18.2401 23.534 18.4323 23.2965 18.4323Z" fill="black"/>
<path d="M22.4482 3.73724C21.4305 3.73724 20.6021 2.90887 20.6021 1.89114C20.6021 0.873413 21.4305 0.0450439 22.4482 0.0450439C23.466 0.0450439 24.2943 0.873413 24.2943 1.89114C24.2943 2.90887 23.466 3.73724 22.4482 3.73724ZM22.4482 0.903909C21.9035 0.903909 21.461 1.34717 21.461 1.89114C21.461 2.43511 21.9043 2.87838 22.4482 2.87838C22.9929 2.87838 23.4355 2.43511 23.4355 1.89114C23.4355 1.34717 22.9929 0.903909 22.4482 0.903909Z" fill="black"/>
<path d="M21.5993 12.6195H3.40071C3.16383 12.6195 2.97163 12.4273 2.97163 12.1904C2.97163 11.9536 3.16383 11.7614 3.40071 11.7614H21.5993C21.8362 11.7614 22.0284 11.9536 22.0284 12.1904C22.0284 12.4273 21.8362 12.6195 21.5993 12.6195Z" fill="black"/>
<path d="M21.5993 4.54363H3.40071C3.16383 4.54363 2.97163 4.35143 2.97163 4.11455C2.97163 3.87767 3.16383 3.68547 3.40071 3.68547H21.5993C21.8362 3.68547 22.0284 3.87767 22.0284 4.11455C22.0284 4.35143 21.8362 4.54363 21.5993 4.54363Z" fill="black"/>
<path d="M5.99575 12.6195C5.75887 12.6195 5.56667 12.4273 5.56667 12.1904V4.11455C5.56667 3.87767 5.75887 3.68547 5.99575 3.68547C6.23262 3.68547 6.42482 3.87767 6.42482 4.11455V12.1911C6.42482 12.4273 6.23333 12.6195 5.99575 12.6195Z" fill="black"/>
<path d="M9.24823 12.6195C9.01135 12.6195 8.81915 12.4273 8.81915 12.1904V4.11455C8.81915 3.87767 9.01135 3.68547 9.24823 3.68547C9.48511 3.68547 9.67731 3.87767 9.67731 4.11455V12.1911C9.67731 12.4273 9.48511 12.6195 9.24823 12.6195Z" fill="black"/>
<path d="M12.5 12.6195C12.2631 12.6195 12.0709 12.4273 12.0709 12.1904V4.11455C12.0709 3.87767 12.2631 3.68547 12.5 3.68547C12.7369 3.68547 12.9291 3.87767 12.9291 4.11455V12.1911C12.9291 12.4273 12.7369 12.6195 12.5 12.6195Z" fill="black"/>
<path d="M15.7518 12.6195C15.5149 12.6195 15.3227 12.4273 15.3227 12.1904V4.11455C15.3227 3.87767 15.5149 3.68547 15.7518 3.68547C15.9887 3.68547 16.1809 3.87767 16.1809 4.11455V12.1911C16.1809 12.4273 15.9887 12.6195 15.7518 12.6195Z" fill="black"/>
<path d="M19.0043 12.6195C18.7674 12.6195 18.5752 12.4273 18.5752 12.1904V4.11455C18.5752 3.87767 18.7674 3.68547 19.0043 3.68547C19.2411 3.68547 19.4333 3.87767 19.4333 4.11455V12.1911C19.4333 12.4273 19.2411 12.6195 19.0043 12.6195Z" fill="black"/>
<path d="M21.5993 6.41029H3.40071C3.16383 6.41029 2.97163 6.21809 2.97163 5.98121C2.97163 5.74433 3.16383 5.55214 3.40071 5.55214H21.5993C21.8362 5.55214 22.0284 5.74433 22.0284 5.98121C22.0284 6.2188 21.8362 6.41029 21.5993 6.41029Z" fill="black"/>
<path d="M21.5993 8.58192H3.40071C3.16383 8.58192 2.97163 8.38973 2.97163 8.15285C2.97163 7.91597 3.16383 7.72377 3.40071 7.72377H21.5993C21.8362 7.72377 22.0284 7.91597 22.0284 8.15285C22.0284 8.38973 21.8362 8.58192 21.5993 8.58192Z" fill="black"/>
<path d="M21.5993 10.7528H3.40071C3.16383 10.7528 2.97163 10.5606 2.97163 10.3238C2.97163 10.0869 3.16383 9.89469 3.40071 9.89469H21.5993C21.8362 9.89469 22.0284 10.0869 22.0284 10.3238C22.0284 10.5606 21.8362 10.7528 21.5993 10.7528Z" fill="black"/>
<path d="M24.5709 18.4323H0.429078C0.192199 18.4323 0 18.2401 0 18.0032C0 17.7663 0.192199 17.5741 0.429078 17.5741H24.5709C24.8078 17.5741 25 17.7663 25 18.0032C25 18.2401 24.8078 18.4323 24.5709 18.4323Z" fill="black"/>
</svg>
