<svg width="25" height="24" viewBox="0 0 25 24" fill="none" xmlns="http://www.w3.org/2000/svg">
<path d="M14.619 7.0517C13.4506 5.88324 11.5495 5.88324 10.381 7.05165C9.81494 7.61766 9.50327 8.3702 9.50327 9.17064C9.50327 9.97108 9.81494 10.7236 10.381 11.2896C10.7692 11.6779 11.2386 11.9363 11.7349 12.0665V22.6596C11.7349 23.0821 12.0774 23.4247 12.5 23.4247C12.9226 23.4247 13.2651 23.0821 13.2651 22.6596V12.0666C13.7614 11.9364 14.2308 11.6779 14.619 11.2897C15.1851 10.7237 15.4967 9.97113 15.4967 9.17069C15.4967 8.37025 15.1851 7.61771 14.619 7.0517ZM13.537 10.2076C12.9652 10.7793 12.0349 10.7794 11.4631 10.2076C11.1861 9.9306 11.0336 9.56244 11.0336 9.17069C11.0336 8.77899 11.1862 8.41073 11.4631 8.13378C11.749 7.84794 12.1246 7.70497 12.5 7.70497C12.8755 7.70497 13.2511 7.84789 13.537 8.13378C13.814 8.41078 13.9665 8.77899 13.9665 9.17069C13.9665 9.56239 13.8139 9.93065 13.537 10.2076Z" fill="black"/>
<path d="M18.1382 3.85531C17.8395 3.55648 17.355 3.55648 17.0561 3.85531C16.7573 4.15409 16.7573 4.63856 17.0561 4.93739C19.3903 7.27167 19.3903 11.0698 17.0561 13.4039C16.7573 13.7027 16.7573 14.1872 17.0561 14.486C17.2055 14.6354 17.4013 14.7101 17.5971 14.7101C17.7929 14.7101 17.9888 14.6354 18.1381 14.486C21.069 11.5552 21.0691 6.78622 18.1382 3.85531Z" fill="black"/>
<path d="M21.4334 0.560144C21.1346 0.261365 20.6501 0.261365 20.3513 0.560144C20.0525 0.858923 20.0525 1.3434 20.3513 1.64222C24.5025 5.79345 24.5025 12.548 20.3513 16.6993C20.0525 16.998 20.0525 17.4825 20.3513 17.7813C20.5007 17.9308 20.6965 18.0055 20.8923 18.0055C21.0881 18.0055 21.284 17.9308 21.4333 17.7813C23.7333 15.4813 25 12.4234 25 9.17069C25 5.91801 23.7333 2.8601 21.4334 0.560144Z" fill="black"/>
<path d="M7.9438 4.93739C8.24272 4.63861 8.24272 4.15414 7.94385 3.85531C7.64507 3.55653 7.1606 3.55653 6.86177 3.85531C3.93086 6.78622 3.93091 11.5552 6.86177 14.486C7.01118 14.6354 7.20698 14.7101 7.40278 14.7101C7.59858 14.7101 7.79443 14.6354 7.9438 14.486C8.24263 14.1872 8.24263 13.7027 7.9438 13.4039C5.60957 11.0697 5.60957 7.27162 7.9438 4.93739Z" fill="black"/>
<path d="M4.64868 1.64222C4.94751 1.34344 4.94751 0.858972 4.64868 0.560144C4.3499 0.261365 3.86543 0.261365 3.5666 0.560144C1.26665 2.8601 0 5.91805 0 9.17064C0 12.4232 1.26665 15.4812 3.56665 17.7812C3.71606 17.9306 3.91187 18.0053 4.10767 18.0053C4.30342 18.0053 4.49932 17.9306 4.64868 17.7812C4.94751 17.4824 4.94751 16.9979 4.64868 16.6991C0.49751 12.5479 0.49751 5.7934 4.64868 1.64222Z" fill="black"/>
</svg>
