<svg width="25" height="25" viewBox="0 0 25 25" fill="none" xmlns="http://www.w3.org/2000/svg">
<path d="M23.8636 3.30455C25.6347 2.6767 25.2097 0.0153409 23.2955 0H1.70455C0.764773 0 0 0.764773 0 1.70455C0 2.44432 0.476705 3.06932 1.13636 3.30455V21.696C-0.634659 22.3233 -0.209659 24.9847 1.70455 25H23.2955C24.2352 25 25 24.2352 25 23.2955C25 22.5557 24.5233 21.9307 23.8636 21.6955V3.30455ZM17.8847 21.5909L19.7028 17.0455H22.7273V21.5909H17.8847ZM8.3392 21.5909L6.35682 16.6358C9.25739 13.9915 11.2619 10.5818 12.1636 6.75057L12.5 5.32159L12.8364 6.75057C13.7381 10.5818 15.7426 13.9915 18.6432 16.6358L16.6608 21.5909H8.3392ZM11.7824 3.40909L11.0574 6.49034C10.1955 10.154 8.25682 13.4034 5.45625 15.9091H2.27273V3.40909H11.7824ZM19.5437 15.9091C16.7432 13.4034 14.8051 10.154 13.9426 6.49034L13.2176 3.40909H22.7273V15.9091H19.5437ZM2.27273 17.0455H5.29716L7.11534 21.5909H2.27273V17.0455ZM1.70455 1.13636H23.2955C24.0347 1.14773 24.0483 2.25852 23.2955 2.27273H1.70455C0.965341 2.26136 0.951704 1.15057 1.70455 1.13636ZM23.2955 23.8636H1.70455C1.39148 23.8636 1.13636 23.6085 1.13636 23.2955C1.13636 22.9824 1.39148 22.7273 1.70455 22.7273H23.2955C24.0341 22.7381 24.0483 23.85 23.2955 23.8636Z" fill="black"/>
</svg>
