<svg width="36" height="37" viewBox="0 0 36 37" fill="none" xmlns="http://www.w3.org/2000/svg">
<path d="M35.7611 21.8997C35.7611 21.306 35.2797 20.8246 34.686 20.8246H32.5344V6.16693C32.5344 3.28773 30.1919 0.945312 27.3127 0.945312C24.4335 0.945312 22.0911 3.28773 22.0911 6.16693V8.12673C22.0911 8.72042 22.5725 9.20179 23.1662 9.20179C23.7598 9.20179 24.2412 8.72042 24.2412 8.12673V6.16693C24.2412 4.47328 25.6191 3.09543 27.3127 3.09543C29.0064 3.09543 30.3842 4.47328 30.3842 6.16693V20.8245H1.7274C1.13371 20.8245 0.652344 21.3059 0.652344 21.8996C0.652344 26.7515 3.7211 30.8997 8.01944 32.5066C7.19259 33.3758 6.68119 34.5677 6.68119 35.8814C6.68119 36.4751 7.16256 36.9564 7.75625 36.9564C8.34995 36.9564 8.83131 36.4751 8.83131 35.8814C8.83131 34.4134 9.95139 33.2191 11.3283 33.2191C11.3788 33.2191 25.0347 33.2191 25.0852 33.2191C26.4621 33.2191 27.5822 34.4134 27.5822 35.8814C27.5822 36.4751 28.0636 36.9564 28.6573 36.9564C29.251 36.9564 29.7324 36.4751 29.7324 35.8814C29.7324 34.5677 29.2209 33.3758 28.3941 32.5066C32.6924 30.8998 35.7611 26.7515 35.7611 21.8997ZM24.4415 31.0691H11.972C7.27939 31.0691 3.3989 27.5262 2.86513 22.9747H33.5483C33.0146 27.5262 29.134 31.0691 24.4415 31.0691Z" fill="#333333"/>
<path d="M23.1662 11.0672C22.5725 11.0672 22.0911 11.5486 22.0911 12.1423V13.074C22.0911 13.6677 22.5725 14.149 23.1662 14.149C23.7598 14.149 24.2412 13.6677 24.2412 13.074V12.1423C24.2411 11.5485 23.7598 11.0672 23.1662 11.0672Z" fill="#333333"/>
<path d="M23.1662 16.2275C22.5725 16.2275 22.0911 16.7089 22.0911 17.3025V18.2343C22.0911 18.828 22.5725 19.3093 23.1662 19.3093C23.7598 19.3093 24.2412 18.828 24.2412 18.2343V17.3025C24.2411 16.7088 23.7598 16.2275 23.1662 16.2275Z" fill="#333333"/>
</svg>
