<svg width="36" height="26" viewBox="0 0 36 26" fill="none" xmlns="http://www.w3.org/2000/svg">
<path d="M32.5759 11.8119V3.99348C32.5759 2.26979 31.1735 0.867432 29.4499 0.867432H7.10809C5.3844 0.867432 3.98204 2.26979 3.98204 3.99348V11.8119C2.10619 12.3312 0.724609 14.0523 0.724609 16.0911V22.0317C0.724609 22.6073 1.19131 23.074 1.7669 23.074H3.98204V24.949C3.98204 25.5246 4.44874 25.9913 5.02433 25.9913C5.59992 25.9913 6.06662 25.5246 6.06662 24.949V23.074H30.4913V24.949C30.4913 25.5246 30.958 25.9913 31.5336 25.9913C32.1092 25.9913 32.5759 25.5246 32.5759 24.949V23.074H34.791C35.3666 23.074 35.8333 22.6073 35.8333 22.0317V16.0911C35.8333 14.0523 34.4517 12.3312 32.5759 11.8119ZM6.06662 3.99348C6.06662 3.41926 6.53387 2.95201 7.10809 2.95201H29.4499C30.0241 2.95201 30.4914 3.41926 30.4914 3.99348V11.6506H28.0492V9.55842C28.0492 7.73914 26.5692 6.25909 24.7499 6.25909H20.5361C19.6636 6.25909 18.8696 6.6001 18.279 7.15519C17.6884 6.60017 16.8945 6.25909 16.022 6.25909H11.8082C9.98892 6.25909 8.50887 7.73921 8.50887 9.55842V11.6506H6.06662V3.99348ZM25.9646 9.55842V11.6506H19.3213V9.55842C19.3213 8.88854 19.8663 8.34367 20.536 8.34367H24.7498C25.4197 8.34367 25.9646 8.88861 25.9646 9.55842ZM17.2366 9.55842V11.6506H10.5932V9.55842C10.5932 8.88854 11.1383 8.34367 11.808 8.34367H16.0218C16.6917 8.34367 17.2366 8.88861 17.2366 9.55842ZM33.7488 20.9894H2.80919V16.0911C2.80919 14.7921 3.86602 13.7352 5.16511 13.7352H31.3928C32.6919 13.7352 33.7488 14.792 33.7488 16.0911V20.9894Z" fill="#333333"/>
</svg>
