<svg width="36" height="36" viewBox="0 0 36 36" fill="none" xmlns="http://www.w3.org/2000/svg">
<path d="M1.23077 0.000238366C0.899819 0.00606635 0.584625 0.142636 0.354033 0.3801C0.123442 0.617564 -0.00380509 0.936575 8.67136e-05 1.26755V33.8354C-0.00118428 34.1676 0.12956 34.4867 0.363563 34.7226C0.597567 34.9584 0.915665 35.0917 1.2479 35.093H33.8279C33.9948 35.0967 34.1607 35.0671 34.3159 35.0058C34.4711 34.9445 34.6125 34.8528 34.7319 34.7361C34.8512 34.6195 34.946 34.4801 35.0107 34.3262C35.0754 34.1724 35.1087 34.0072 35.1087 33.8403C35.1087 33.6734 35.0754 33.5082 35.0107 33.3544C34.946 33.2006 34.8512 33.0612 34.7319 32.9445C34.6125 32.8278 34.4711 32.7362 34.3159 32.6749C34.1607 32.6136 33.9948 32.5839 33.8279 32.5876H2.50794V1.26755C2.50992 1.09974 2.47816 0.933325 2.41455 0.778023C2.35095 0.622721 2.25678 0.481695 2.13766 0.363484C2.01853 0.245273 1.87687 0.15223 1.72109 0.0898216C1.5653 0.0274133 1.39856 -0.0030339 1.23077 0.000238366ZM33.7986 8.14524C33.474 8.15556 33.1661 8.29157 32.9398 8.52452L20.0849 21.3794L14.7047 15.4609C14.4811 15.2161 14.1697 15.0699 13.8386 15.0543C13.5075 15.0387 13.1837 15.1549 12.9381 15.3775L5.41949 22.2673C5.29801 22.3785 5.19962 22.5126 5.12993 22.6618C5.06024 22.811 5.02062 22.9723 5.01334 23.1368C5.00606 23.3014 5.03125 23.4657 5.08748 23.6205C5.14371 23.7752 5.22987 23.9174 5.34105 24.0389C5.45223 24.1604 5.58625 24.2588 5.73546 24.3285C5.88466 24.3981 6.04612 24.4376 6.21063 24.4449C6.37514 24.4522 6.53946 24.4269 6.69422 24.3706C6.84898 24.3144 6.99115 24.2283 7.1126 24.1171L13.7064 18.0786L19.116 24.0338C19.2298 24.1592 19.3677 24.2603 19.5216 24.3309C19.6754 24.4015 19.842 24.4401 20.0112 24.4445C20.1804 24.4489 20.3487 24.4191 20.5061 24.3566C20.6634 24.2942 20.8064 24.2005 20.9266 24.0812L34.7063 10.2942C34.8854 10.1181 35.0074 9.89222 35.0565 9.6459C35.1056 9.39958 35.0795 9.14423 34.9817 8.91291C34.8838 8.68158 34.7187 8.48498 34.5077 8.34868C34.2967 8.21237 34.0497 8.14255 33.7986 8.14841V8.14524Z" fill="#333333"/>
</svg>
