<svg width="36" height="37" viewBox="0 0 36 37" fill="none" xmlns="http://www.w3.org/2000/svg">
<path d="M2.07234 11.572C2.74778 11.572 3.29507 11.0245 3.29507 10.3492V5.13584L11.1703 13.0094C11.4091 13.2481 11.722 13.3674 12.0348 13.3674C12.3479 13.3674 12.6609 13.2481 12.8996 13.0093C13.3771 12.5317 13.3771 11.7575 12.8994 11.2801L5.02385 3.4064H10.2384C10.9137 3.4064 11.4611 2.85894 11.4611 2.18367C11.4611 1.5084 10.9138 0.960938 10.2384 0.960938H2.07234C1.3969 0.960938 0.849609 1.5084 0.849609 2.18367V10.3494C0.849609 11.0245 1.3969 11.572 2.07234 11.572Z" fill="#333333"/>
<path d="M34.7356 25.458C34.0601 25.458 33.5128 26.0054 33.5128 26.6807V31.8943L25.3952 23.7766C24.9175 23.2991 24.1435 23.2991 23.666 23.7766C23.1884 24.2542 23.1884 25.0284 23.666 25.5057L31.7834 33.6232H26.5702C25.8948 33.6232 25.3475 34.1707 25.3475 34.846C25.3475 35.5212 25.8948 36.0687 26.5702 36.0687H34.7357C35.4112 36.0687 35.9585 35.5212 35.9585 34.846V26.6807C35.9583 26.0054 35.4108 25.458 34.7356 25.458Z" fill="#333333"/>
<path d="M11.4127 23.7766L3.29589 31.8941V26.6807C3.29589 26.0054 2.7486 25.458 2.07316 25.458C1.39772 25.458 0.850425 26.0054 0.850425 26.6807V34.8463C0.850425 35.5215 1.39772 36.069 2.07316 36.069H10.2384C10.9137 36.069 11.4611 35.5215 11.4611 34.8463C11.4611 34.171 10.9138 33.6235 10.2384 33.6235H5.025L13.142 25.5057C13.6195 25.0282 13.6195 24.254 13.1418 23.7765C12.6646 23.2991 11.8904 23.2991 11.4127 23.7766Z" fill="#333333"/>
<path d="M34.7356 0.960938H26.57C25.8946 0.960938 25.3473 1.5084 25.3473 2.18367C25.3473 2.85894 25.8946 3.4064 26.57 3.4064H31.7836L23.9095 11.281C23.432 11.7585 23.432 12.5327 23.9097 13.0102C24.1484 13.2489 24.4614 13.3683 24.7742 13.3683C25.0871 13.3683 25.4001 13.2487 25.639 13.0101L33.513 5.13551V10.3492C33.513 11.0245 34.0603 11.572 34.7357 11.572C35.4112 11.572 35.9585 11.0245 35.9585 10.3492V2.18367C35.9583 1.50823 35.4109 0.960938 34.7356 0.960938Z" fill="#333333"/>
</svg>
